<svg version="1.1" class="eltdf-not-logged" xmlns="http://www.w3.org/2000/svg" xmlns:xlink="http://www.w3.org/1999/xlink" x="0px" y="0px" width="15px" height="15px" viewBox="0 0 15 15" enable-background="new 0 0 15 15" xml:space="preserve"><g><path fill="none" stroke="#3D3B32" d="M3.184,10.178C4.697,9.57,6.142,9.266,7.518,9.266s2.82,0.305,4.333,0.912 c1.514,0.605,2.271,1.404,2.271,2.39v1.651H0.914v-1.651C0.914,11.582,1.67,10.784,3.184,10.178z M9.855,6.652 C9.215,7.294,8.435,7.615,7.518,7.615S5.821,7.294,5.179,6.652C4.536,6.009,4.216,5.23,4.216,4.313s0.32-1.696,0.963-2.339 C5.821,1.332,6.6,1.012,7.518,1.012s1.697,0.321,2.338,0.963c0.643,0.643,0.964,1.421,0.964,2.338S10.498,6.009,9.855,6.652z"></path></g></svg>