<svg xmlns="http://www.w3.org/2000/svg" width="44" height="45" viewBox="0 0 44 45"><defs><clipPath id="tfyca"><path fill="#fff" d="M20.97 22.892l22.191 3.937c-1.58 10.412-10.569 18.2-21.421 18.2C9.772 45.03.072 34.798.072 22.83.072 11.006 9.202 1.21 20.97.98z"/></clipPath><clipPath id="tfycb"><path fill="#fff" d="M22.01 20.956L22.008.009c10.53.166 20.27 8.002 21.728 18.756.263 1.943.416 4.265.175 6.12z"/></clipPath></defs><g><g><g><g><path fill="none" stroke="#6639b6" stroke-miterlimit="20" stroke-width="4" d="M20.97 22.892v0l22.191 3.937c-1.58 10.412-10.569 18.2-21.421 18.2C9.772 45.03.072 34.798.072 22.83.072 11.006 9.202 1.21 20.97.98z" clip-path="url(&quot;#tfyca&quot;)"/></g><g><path fill="none" stroke="#6639b6" stroke-miterlimit="20" stroke-width="4" d="M22.01 20.956v0L22.008.009c10.53.166 20.27 8.002 21.728 18.756.263 1.943.416 4.265.175 6.12z" clip-path="url(&quot;#tfycb&quot;)"/></g></g></g></g></svg>