<?xml version="1.0" encoding="UTF-8" standalone="no"?>
<svg
   xmlns:dc="http://purl.org/dc/elements/1.1/"
   xmlns:cc="http://creativecommons.org/ns#"
   xmlns:rdf="http://www.w3.org/1999/02/22-rdf-syntax-ns#"
   xmlns:svg="http://www.w3.org/2000/svg"
   xmlns="http://www.w3.org/2000/svg"
   xmlns:sodipodi="http://sodipodi.sourceforge.net/DTD/sodipodi-0.dtd"
   xmlns:inkscape="http://www.inkscape.org/namespaces/inkscape"
   width="41"
   height="63"
   viewBox="0 0 41 63"
   version="1.1"
   id="svg80"
   sodipodi:docname="mic.svg"
   inkscape:version="1.0.1 (3bc2e813f5, 2020-09-07)">
  <metadata
     id="metadata84">
    <rdf:RDF>
      <cc:Work
         rdf:about="">
        <dc:format>image/svg+xml</dc:format>
        <dc:type
           rdf:resource="http://purl.org/dc/dcmitype/StillImage" />
        <dc:title></dc:title>
      </cc:Work>
    </rdf:RDF>
  </metadata>
  <sodipodi:namedview
     pagecolor="#ffffff"
     bordercolor="#666666"
     borderopacity="1"
     objecttolerance="10"
     gridtolerance="10"
     guidetolerance="10"
     inkscape:pageopacity="0"
     inkscape:pageshadow="2"
     inkscape:window-width="1440"
     inkscape:window-height="877"
     id="namedview82"
     showgrid="true"
     inkscape:zoom="9.1746032"
     inkscape:cx="20.5"
     inkscape:cy="35.859862"
     inkscape:window-x="1358"
     inkscape:window-y="-8"
     inkscape:window-maximized="1"
     inkscape:current-layer="svg80">
    <inkscape:grid
       type="xygrid"
       id="grid90" />
  </sodipodi:namedview>
  <defs
     id="defs60">
    <clipPath
       id="resja">
      <path
         fill="#fff"
         d="M5.985 62.01H33.93"
         id="path48" />
    </clipPath>
    <clipPath
       id="resjb">
      <path
         fill="#fff"
         d="M20.978 50.949v11.079"
         id="path51" />
    </clipPath>
    <clipPath
       id="resjc">
      <path
         fill="#fff"
         d="M19.873 0h.254C26.684 0 32 5.316 32 11.873v17.254C32 35.684 26.684 41 20.127 41h-.254C13.316 41 8 35.684 8 29.127V11.873C8 5.316 13.316 0 19.873 0z"
         id="path54" />
    </clipPath>
    <clipPath
       id="resjd">
      <path
         fill="#fff"
         d="M.978 31.073s.69 19.923 19.515 19.923c18.824 0 19.502-20.002 19.502-20.002"
         id="path57" />
    </clipPath>
  </defs>
  <g
     id="g103">
    <g
       id="g78"
       transform="scale(1,1.0156703)">
      <g
         id="g64">
        <path
           fill="none"
           stroke="#8ac249"
           stroke-miterlimit="20"
           stroke-width="4"
           d="M 5.985,62.01 H 33.93"
           clip-path="url(#resja)"
           id="path62" />
      </g>
      <g
         id="g68">
        <path
           fill="none"
           stroke="#8ac249"
           stroke-miterlimit="20"
           stroke-width="4"
           d="M 20.978,50.949 V 62.028"
           clip-path="url(#resjb)"
           id="path66" />
      </g>
      <g
         id="g72">
        <path
           fill="none"
           stroke="#8ac249"
           stroke-miterlimit="20"
           stroke-width="4"
           d="m 19.873,0 h 0.254 C 26.684,0 32,5.316 32,11.873 V 29.127 C 32,35.684 26.684,41 20.127,41 H 19.873 C 13.316,41 8,35.684 8,29.127 V 11.873 C 8,5.316 13.316,0 19.873,0 Z"
           clip-path="url(#resjc)"
           id="path70" />
      </g>
      <g
         id="g76">
        <path
           fill="none"
           stroke="#8ac249"
           stroke-miterlimit="20"
           stroke-width="4"
           d="m 0.978,31.073 v 0 c 0,0 0.69,19.923 19.515,19.923 18.824,0 19.502,-20.002 19.502,-20.002 v 0"
           clip-path="url(#resjd)"
           id="path74" />
      </g>
    </g>
    <rect
       style="fill:#8ac249;fill-opacity:1;stroke-width:0.996281"
       id="rect86"
       width="2"
       height="11.945"
       x="19"
       y="50.5" />
    <rect
       style="fill:#8ac249;fill-opacity:1;stroke-width:1.00462"
       id="rect88"
       width="30"
       height="2"
       x="5"
       y="61" />
  </g>
</svg>
