<svg xmlns="http://www.w3.org/2000/svg" width="39" height="36" viewBox="0 0 39 36"><defs><clipPath id="y4qda"><path fill="#fff" d="M19.92 23.05l3.895 4.938h15.152V17.99H23.464z"/></clipPath><clipPath id="y4qdb"><path fill="#fff" d="M36.989 18.253v-7.274H1v24.015h36.005v-7.286"/></clipPath><clipPath id="y4qdc"><path fill="#fff" d="M26.969 21.062a2 2 0 1 1 0 4 2 2 0 0 1 0-4z"/></clipPath></defs><g><g><g><path fill="none" stroke="#2096f3" stroke-linecap="round" stroke-linejoin="round" stroke-miterlimit="20" stroke-width="4" d="M19.92 23.05v0l3.895 4.938v0h15.152v0-9.998 0H23.464v0z" clip-path="url(&quot;#y4qda&quot;)"/></g><g><path fill="none" stroke="#2096f3" stroke-miterlimit="20" stroke-width="4" d="M36.989 18.253v0-7.274 0H1v24.015h36.005v0-7.286 0" clip-path="url(&quot;#y4qdb&quot;)"/></g><g><path fill="none" stroke="#2096f3" stroke-miterlimit="20" stroke-width="4" d="M26.969 21.062a2 2 0 1 1 0 4 2 2 0 0 1 0-4z" clip-path="url(&quot;#y4qdc&quot;)"/></g><g><path fill="none" stroke="#2096f3" stroke-linejoin="round" stroke-miterlimit="20" stroke-width="2" d="M.553 9.907v0l30.445-8.862v9.607"/></g></g></g></svg>