<svg id="bg-clients.svg" xmlns="http://www.w3.org/2000/svg" width="1255" height="299.69" viewBox="0 0 1255 299.69">
  <metadata><?xpacket begin="﻿" id="W5M0MpCehiHzreSzNTczkc9d"?>
<x:xmpmeta xmlns:x="adobe:ns:meta/" x:xmptk="Adobe XMP Core 5.6-c142 79.160924, 2017/07/13-01:06:39        ">
   <rdf:RDF xmlns:rdf="http://www.w3.org/1999/02/22-rdf-syntax-ns#">
      <rdf:Description rdf:about=""/>
   </rdf:RDF>
</x:xmpmeta>
                                                                                                    
                                                                                                    
                                                                                                    
                                                                                                    
                                                                                                    
                                                                                                    
                                                                                                    
                                                                                                    
                                                                                                    
                                                                                                    
                                                                                                    
                                                                                                    
                                                                                                    
                                                                                                    
                                                                                                    
                                                                                                    
                                                                                                    
                                                                                                    
                                                                                                    
                                                                                                    
                           
<?xpacket end="w"?></metadata>
<defs>
    <style>
      .cls-1, .cls-2 {
        fill: #a4eecb;
        fill-rule: evenodd;
      }

      .cls-2 {
        opacity: 0.5;
      }
    </style>
  </defs>
  <path id="Прямоугольник_1" data-name="Прямоугольник 1" class="cls-1" d="M299.17,4615.17l8.66-5,5,8.66-8.66,5Z" transform="translate(-185 -4574.28)"/>
  <path id="Прямоугольник_1_копия_11" data-name="Прямоугольник 1 копия 11" class="cls-2" d="M1031.01,4704.3l5.69-3.29,3.29,5.69-5.69,3.29Z" transform="translate(-185 -4574.28)"/>
  <path id="Прямоугольник_1_копия_4" data-name="Прямоугольник 1 копия 4" class="cls-1" d="M585.876,4728.46l9.659-2.58,2.589,9.66-9.66,2.58Z" transform="translate(-185 -4574.28)"/>
  <path id="Прямоугольник_1_копия_12" data-name="Прямоугольник 1 копия 12" class="cls-1" d="M1240.1,4660.55l9.35,3.55-3.55,9.35-9.35-3.55Z" transform="translate(-185 -4574.28)"/>
  <path id="Прямоугольник_1_копия_6" data-name="Прямоугольник 1 копия 6" class="cls-1" d="M1044.15,4596.18l8.67,4.97-4.97,8.67-8.67-4.97Z" transform="translate(-185 -4574.28)"/>
  <path id="Прямоугольник_1_копия_5" data-name="Прямоугольник 1 копия 5" class="cls-2" d="M885.17,4796.83l5-8.66,8.66,5-5,8.66Z" transform="translate(-185 -4574.28)"/>
  <path id="Прямоугольник_1_копия" data-name="Прямоугольник 1 копия" class="cls-1" d="M413.8,4673.26l16.936,4.54-4.538,16.94-16.937-4.54Z" transform="translate(-185 -4574.28)"/>
  <path id="Прямоугольник_1_копия_10" data-name="Прямоугольник 1 копия 10" class="cls-1" d="M810.547,4694.47l3.982,17.08-17.076,3.98-3.982-17.08Z" transform="translate(-185 -4574.28)"/>
  <path id="Прямоугольник_1_копия_9" data-name="Прямоугольник 1 копия 9" class="cls-2" d="M525.8,4828.26l16.936,4.54-4.538,16.94-16.937-4.54Z" transform="translate(-185 -4574.28)"/>
  <path id="Прямоугольник_1_копия_2" data-name="Прямоугольник 1 копия 2" class="cls-1" d="M762.781,4581.03l11.689-6.75,6.749,11.69-11.689,6.75Z" transform="translate(-185 -4574.28)"/>
  <path id="Прямоугольник_1_копия_3" data-name="Прямоугольник 1 копия 3" class="cls-1" d="M1141.21,4850.02l8.77,15.19-15.19,8.77-8.77-15.19Z" transform="translate(-185 -4574.28)"/>
  <path id="Прямоугольник_1_копия_7" data-name="Прямоугольник 1 копия 7" class="cls-2" d="M1440.01,4654.56l-21.57,12.45-12.45-21.57,21.57-12.45Z" transform="translate(-185 -4574.28)"/>
  <path id="Прямоугольник_1_копия_8" data-name="Прямоугольник 1 копия 8" class="cls-2" d="M219.01,4740.44l-12.452,21.57-21.569-12.45,12.453-21.57Z" transform="translate(-185 -4574.28)"/>
</svg>
