<svg height="512" viewBox="0 0 60 60" width="512" xmlns="http://www.w3.org/2000/svg"><g id="Page-1" fill="none" fill-rule="evenodd"><g id="127---Screen-Settings" fill="rgb(0,0,0)" fill-rule="nonzero"><path id="Shape" d="m4 60c.55228475 0 1-.4477153 1-1s-.44771525-1-1-1h-3c-.55228475 0-1 .4477153-1 1s.44771525 1 1 1z"/><path id="Shape" d="m55 0h-50c-2.76005315.00330612-4.99669388 2.23994685-5 5v37c.00495836 3.8639376 3.13606244 6.9950416 7 7h16v4c0 2.91-3.43 4.644-4.21 5h-9.79c-.55228475 0-1 .4477153-1 1s.44771525 1 1 1h50c.5522847 0 1-.4477153 1-1s-.4477153-1-1-1h-17.791c-.778-.352-4.209-2.072-4.209-5v-5c0-.5522847-.4477153-1-1-1s-1 .4477153-1 1v5c.0678911 1.9603748.9987051 3.7905241 2.543 5h-15.086c1.5442949-1.2094759 2.4751089-3.0396252 2.543-5v-4c.5522847 0 1-.4477153 1-1s-.4477153-1-1-1h-18c-2.76005315-.0033061-4.99669388-2.2399468-5-5v-2h19c.5522847 0 1-.4477153 1-1s-.4477153-1-1-1h-19v-30h3c.55228475 0 1-.44771525 1-1s-.44771525-1-1-1h-3v-1c0-1.65685425 1.34314575-3 3-3h50c1.6568542 0 3 1.34314575 3 3v1h-48c-.55228475 0-1 .44771525-1 1s.44771525 1 1 1h48v6c0 .5522847.4477153 1 1 1s1-.4477153 1-1v-9c-.0033061-2.76005315-2.2399468-4.99669388-5-5z"/><circle id="Oval" cx="30" cy="4" r="1"/><path id="Shape" d="m5 15c.26519481-.0000566.51950727-.1054506.707-.293l3-3c.37897221-.3923789.37355237-1.0160848-.01218142-1.4018186-.3857338-.38573377-1.00943969-.39115361-1.40181858-.0121814l-3 3c-.28590792.2859943-.37142191.7160366-.21667798 1.0896546.15474393.3736179.51928208.6172591.92367798.6173454z"/><path id="Shape" d="m4.293 20.707c.39049985.3903819 1.02350015.3903819 1.414 0l9-9c.3789722-.3923789.3735524-1.0160848-.0121814-1.4018186-.3857338-.38573377-1.0094397-.39115361-1.4018186-.0121814l-9 9c-.39038194.3904999-.39038194 1.0235001 0 1.414z"/><path id="Shape" d="m57 17h-2.812c-1.0682518-1.8559567-3.0465666-2.9998902-5.188-2.9998902s-4.1197482 1.1439335-5.188 2.9998902h-15.812c-1.6568542 0-3 1.3431458-3 3s1.3431458 3 3 3h15.812c1.0682518 1.8559567 3.0465666 2.9998902 5.188 2.9998902s4.1197482-1.1439335 5.188-2.9998902h2.812c1.6568542 0 3-1.3431458 3-3s-1.3431458-3-3-3zm-29 4c-.5522847 0-1-.4477153-1-1s.4477153-1 1-1h15.09c-.1200121.6612656-.1200121 1.3387344 0 2zm21 3c-2.209139 0-4-1.790861-4-4s1.790861-4 4-4 4 1.790861 4 4-1.790861 4-4 4zm8-3h-2.09c.1200121-.6612656.1200121-1.3387344 0-2h2.09c.5522847 0 1 .4477153 1 1s-.4477153 1-1 1z"/><path id="Shape" d="m57 39h-2.812c-1.0682518-1.8559567-3.0465666-2.9998902-5.188-2.9998902s-4.1197482 1.1439335-5.188 2.9998902h-15.812c-1.6568542 0-3 1.3431458-3 3s1.3431458 3 3 3h15.812c1.0682518 1.8559567 3.0465666 2.9998902 5.188 2.9998902s4.1197482-1.1439335 5.188-2.9998902h2.812c1.6568542 0 3-1.3431458 3-3s-1.3431458-3-3-3zm-29 4c-.5522847 0-1-.4477153-1-1s.4477153-1 1-1h15.09c-.1200121.6612656-.1200121 1.3387344 0 2zm21 3c-2.209139 0-4-1.790861-4-4s1.790861-4 4-4 4 1.790861 4 4-1.790861 4-4 4zm8-3h-2.09c.1200121-.6612656.1200121-1.3387344 0-2h2.09c.5522847 0 1 .4477153 1 1s-.4477153 1-1 1z"/><path id="Shape" d="m57 28h-12.812c-1.0682518-1.8559567-3.0465666-2.9998902-5.188-2.9998902s-4.1197482 1.1439335-5.188 2.9998902h-5.812c-1.6568542 0-3 1.3431458-3 3s1.3431458 3 3 3h5.812c1.0682518 1.8559567 3.0465666 2.9998902 5.188 2.9998902s4.1197482-1.1439335 5.188-2.9998902h12.812c1.6568542 0 3-1.3431458 3-3s-1.3431458-3-3-3zm-29 4c-.5522847 0-1-.4477153-1-1s.4477153-1 1-1h5.09c-.1200121.6612656-.1200121 1.3387344 0 2zm11 3c-2.209139 0-4-1.790861-4-4s1.790861-4 4-4 4 1.790861 4 4-1.790861 4-4 4zm18-3h-12.09c.1200121-.6612656.1200121-1.3387344 0-2h12.09c.5522847 0 1 .4477153 1 1s-.4477153 1-1 1z"/></g></g></svg>