<?xml version="1.0" encoding="iso-8859-1"?>
<!-- Generator: Adobe Illustrator 19.0.0, SVG Export Plug-In . SVG Version: 6.00 Build 0)  -->
<svg version="1.1" id="Capa_1" xmlns="http://www.w3.org/2000/svg" xmlns:xlink="http://www.w3.org/1999/xlink" x="0px" y="0px"
	 viewBox="0 0 511.854 511.854" style="enable-background:new 0 0 511.854 511.854;" xml:space="preserve">
<g>
	<g>
		<path d="M20.231,103.974h-0.078c-2.21,0-3.959,1.788-3.959,3.999s1.831,3.999,4.038,3.999c2.21,0,3.998-1.788,3.998-3.999
			S22.441,103.974,20.231,103.974z"/>
	</g>
</g>
<g>
	<g>
		<path d="M36.227,103.974h-0.079c-2.21,0-3.959,1.788-3.959,3.999s1.831,3.999,4.038,3.999c2.21,0,3.999-1.788,3.999-3.999
			S38.437,103.974,36.227,103.974z"/>
	</g>
</g>
<g>
	<g>
		<path d="M52.221,103.974h-0.078c-2.21,0-3.959,1.788-3.959,3.999s1.831,3.999,4.038,3.999c2.21,0,3.998-1.788,3.998-3.999
			S54.431,103.974,52.221,103.974z"/>
	</g>
</g>
<g>
	<g>
		<path d="M411.878,95.976H11.996C5.381,95.976,0,101.358,0,107.973v7.998c0,2.21,1.789,3.999,3.999,3.999h415.875
			c2.211,0,4-1.789,4-3.999v-7.998C423.874,101.357,418.493,95.976,411.878,95.976z M415.876,111.972H7.997v-3.999
			c0-2.203,1.793-3.999,3.999-3.999h399.882c2.162,0,3.998,1.828,3.998,3.999V111.972z"/>
	</g>
</g>
<g>
	<g>
		<path d="M419.874,111.972c-2.209,0-3.998,1.789-3.998,3.999v71.978c0,2.211,1.789,3.999,3.998,3.999c2.211,0,4-1.789,4-3.999
			v-71.978C423.874,113.761,422.085,111.972,419.874,111.972z"/>
	</g>
</g>
<g>
	<g>
		<path d="M3.999,111.972c-2.21,0-3.999,1.789-3.999,3.999V411.88c0,2.21,1.789,3.999,3.999,3.999c2.21,0,3.998-1.789,3.999-3.999
			V115.971C7.998,113.761,6.209,111.972,3.999,111.972z"/>
	</g>
</g>
<g>
	<g>
		<path d="M387.884,407.881H3.999c-2.21,0-3.999,1.789-3.999,3.999c0,2.21,1.789,3.999,3.999,3.999h383.885c2.211,0,4-1.789,4-3.999
			C391.884,409.67,390.095,407.881,387.884,407.881z"/>
	</g>
</g>
<g>
	<g>
		<path d="M502.544,321.205c-1.638-1.5-4.162-1.39-5.654,0.258l-79.975,87.723c-1.484,1.632-1.367,4.162,0.266,5.646
			c0.765,0.703,1.726,1.047,2.693,1.047c1.086,0,2.164-0.437,2.953-1.305l79.975-87.723
			C504.294,325.219,504.177,322.688,502.544,321.205z"/>
	</g>
</g>
<g>
	<g>
		<path d="M461.651,328.327c-1.984-0.999-4.375-0.179-5.365,1.789l-39.988,79.976c-0.992,1.975-0.188,4.373,1.789,5.365
			c0.57,0.289,1.177,0.422,1.779,0.422c1.469,0,2.883-0.812,3.586-2.211l39.988-79.975
			C464.422,331.717,463.626,329.319,461.651,328.327z"/>
	</g>
</g>
<g>
	<g>
		<path d="M503.771,323.4c-0.422-2.171-2.506-3.585-4.686-3.171l-39.988,7.748c-2.162,0.421-3.584,2.523-3.162,4.686
			c0.375,1.913,2.045,3.241,3.92,3.241c0.25,0,0.508-0.024,0.766-0.07l39.988-7.747C502.779,327.665,504.193,325.563,503.771,323.4z
			"/>
	</g>
</g>
<g>
	<g>
		<path d="M502.685,321.339l-39.986-40.238c-1.562-1.578-4.093-1.57-5.654-0.016c-1.571,1.554-1.578,4.085-0.016,5.654
			l39.986,40.238c0.781,0.789,1.805,1.18,2.836,1.18c1.015,0,2.037-0.391,2.818-1.164
			C504.232,325.439,504.24,322.908,502.685,321.339z"/>
	</g>
</g>
<g>
	<g>
		<path d="M459.863,279.921c-2.211,0-3.998,1.789-3.998,3.999v47.985c0,2.211,1.787,3.999,3.998,3.999
			c2.21,0,3.998-1.788,3.998-3.999V283.92C463.861,281.71,462.074,279.921,459.863,279.921z"/>
	</g>
</g>
<g>
	<g>
		<path d="M462.934,329.343l-39.988-47.985c-1.414-1.688-3.93-1.921-5.631-0.508c-1.696,1.414-1.93,3.937-0.516,5.631l39.988,47.986
			c0.795,0.945,1.928,1.437,3.076,1.437c0.906,0,1.812-0.305,2.563-0.93C464.12,333.561,464.346,331.037,462.934,329.343z"/>
	</g>
</g>
<g>
	<g>
		<path d="M422.436,280.85c-1.711-1.413-4.217-1.18-5.639,0.508l-39.988,47.985c-1.414,1.694-1.179,4.218,0.516,5.631
			c0.75,0.625,1.657,0.93,2.555,0.93c1.147,0,2.287-0.493,3.076-1.437l39.988-47.986
			C424.358,284.787,424.131,282.264,422.436,280.85z"/>
	</g>
</g>
<g>
	<g>
		<path d="M459.863,327.907h-79.975c-2.211,0-4,1.788-4,3.998c0,2.211,1.789,3.999,4,3.999h79.975c2.21,0,3.998-1.788,3.998-3.999
			C463.861,329.695,462.074,327.907,459.863,327.907z"/>
	</g>
</g>
<g>
	<g>
		<path d="M423.452,410.092l-39.988-79.976c-0.992-1.968-3.396-2.788-5.365-1.789c-1.977,0.992-2.781,3.389-1.789,5.366
			l39.988,79.975c0.703,1.399,2.109,2.211,3.576,2.211c0.602,0,1.211-0.133,1.789-0.422
			C423.64,414.465,424.436,412.068,423.452,410.092z"/>
	</g>
</g>
<g>
	<g>
		<path d="M382.706,281.085c-1.57-1.546-4.099-1.553-5.654,0.016l-39.988,40.238c-1.56,1.569-1.552,4.099,0.016,5.654
			c0.781,0.773,1.797,1.164,2.82,1.164s2.054-0.391,2.834-1.18l39.988-40.238C384.276,285.17,384.268,282.64,382.706,281.085z"/>
	</g>
</g>
<g>
	<g>
		<path d="M380.646,327.977l-39.988-7.748c-2.172-0.383-4.266,1.008-4.686,3.171c-0.422,2.164,0.998,4.265,3.162,4.687l39.988,7.747
			c0.258,0.047,0.516,0.07,0.766,0.07c1.881,0,3.553-1.329,3.92-3.241C384.23,330.499,382.816,328.398,380.646,327.977z"/>
	</g>
</g>
<g>
	<g>
		<path d="M422.827,409.186l-79.977-87.723c-1.474-1.641-4.021-1.75-5.646-0.258c-1.631,1.483-1.748,4.013-0.266,5.646
			l79.977,87.723c0.789,0.867,1.875,1.305,2.959,1.305c0.961,0,1.93-0.344,2.695-1.047
			C424.202,413.348,424.319,410.819,422.827,409.186z"/>
	</g>
</g>
<g>
	<g>
		<path d="M379.888,279.921c-2.211,0-4,1.789-4,3.999v47.985c0,2.211,1.789,3.999,4,3.999c2.209,0,3.998-1.788,3.998-3.999V283.92
			C383.886,281.71,382.097,279.921,379.888,279.921z"/>
	</g>
</g>
<g>
	<g>
		<path d="M459.863,279.92h-79.975c-2.211,0-4,1.789-4,3.999c0,2.21,1.789,3.999,4,3.999h79.975c2.21,0,3.998-1.789,3.998-3.999
			C463.861,281.709,462.074,279.92,459.863,279.92z"/>
	</g>
</g>
<g>
	<g>
		<path d="M419.874,207.943c-2.209,0-3.998,1.789-3.998,3.999v47.985c0,2.21,1.789,3.999,3.998,3.999c2.211,0,4-1.789,4-3.999
			v-47.985C423.874,209.732,422.085,207.943,419.874,207.943z"/>
	</g>
</g>
<g>
	<g>
		<path d="M366.72,265.096l-31.99-31.99c-1.562-1.562-4.093-1.562-5.654,0c-1.562,1.563-1.562,4.093,0,5.655l31.99,31.991
			c0.779,0.78,1.803,1.171,2.826,1.171s2.047-0.391,2.828-1.172C368.281,269.189,368.281,266.658,366.72,265.096z"/>
	</g>
</g>
<g>
	<g>
		<path d="M510.683,233.107c-1.562-1.562-4.092-1.562-5.654,0l-31.998,31.99c-1.562,1.562-1.562,4.093,0,5.655
			c0.781,0.78,1.805,1.171,2.828,1.171c1.021,0,2.045-0.391,2.826-1.17l31.998-31.991
			C512.245,237.2,512.245,234.669,510.683,233.107z"/>
	</g>
</g>
<g>
	<g>
		<path d="M19.994,111.972c-2.211,0-3.999,1.789-3.999,3.999V411.88c0,2.21,1.788,3.999,3.999,3.999c2.21,0,3.998-1.789,3.999-3.999
			V115.971C23.993,113.761,22.204,111.972,19.994,111.972z"/>
	</g>
</g>
<g>
	<g>
		<path d="M11.996,143.962H3.999c-2.21,0-3.999,1.789-3.999,3.999c0,2.21,1.789,3.999,3.999,3.999h7.997
			c2.21,0,3.999-1.789,3.999-3.999C15.995,145.751,14.206,143.962,11.996,143.962z"/>
	</g>
</g>
<g>
	<g>
		<path d="M11.996,167.954H3.999c-2.21,0-3.999,1.788-3.999,3.999s1.789,3.999,3.999,3.999h7.997c2.21,0,3.999-1.788,3.999-3.999
			S14.206,167.954,11.996,167.954z"/>
	</g>
</g>
<g>
	<g>
		<path d="M11.996,191.948H3.999c-2.21,0-3.999,1.789-3.999,3.999c0,2.21,1.789,3.999,3.999,3.999h7.997
			c2.21,0,3.999-1.789,3.999-3.999C15.995,193.737,14.206,191.948,11.996,191.948z"/>
	</g>
</g>
<g>
	<g>
		<path d="M11.996,215.94H3.999c-2.21,0-3.999,1.789-3.999,3.999c0,2.211,1.789,3.999,3.999,3.999h7.997
			c2.21,0,3.999-1.788,3.999-3.999C15.995,217.729,14.206,215.94,11.996,215.94z"/>
	</g>
</g>
<g>
	<g>
		<path d="M11.996,239.932H3.999c-2.21,0-3.999,1.789-3.999,3.999s1.789,3.999,3.999,3.999h7.997c2.21,0,3.999-1.788,3.999-3.999
			C15.995,241.721,14.206,239.932,11.996,239.932z"/>
	</g>
</g>
<g>
	<g>
		<path d="M11.996,263.926H3.999c-2.21,0-3.999,1.788-3.999,3.998c0,2.211,1.789,3.999,3.999,3.999h7.997
			c2.21,0,3.999-1.788,3.999-3.999C15.995,265.714,14.206,263.926,11.996,263.926z"/>
	</g>
</g>
<g>
	<g>
		<path d="M11.996,287.918H3.999c-2.21,0-3.999,1.789-3.999,3.999c0,2.21,1.789,3.999,3.999,3.999h7.997
			c2.21,0,3.999-1.789,3.999-3.999C15.995,289.707,14.206,287.918,11.996,287.918z"/>
	</g>
</g>
<g>
	<g>
		<path d="M11.996,311.91H3.999c-2.21,0-3.999,1.789-3.999,3.999c0,2.21,1.789,3.999,3.999,3.999h7.997
			c2.21,0,3.999-1.789,3.999-3.999C15.995,313.699,14.206,311.91,11.996,311.91z"/>
	</g>
</g>
<g>
	<g>
		<path d="M11.996,335.904H3.999c-2.21,0-3.999,1.788-3.999,3.999c0,2.21,1.789,3.998,3.999,3.998h7.997
			c2.21,0,3.999-1.788,3.999-3.998C15.995,337.692,14.206,335.904,11.996,335.904z"/>
	</g>
</g>
<g>
	<g>
		<path d="M11.996,359.897H3.999c-2.21,0-3.999,1.788-3.999,3.998c0,2.211,1.789,3.999,3.999,3.999h7.997
			c2.21,0,3.999-1.788,3.999-3.999C15.995,361.685,14.206,359.897,11.996,359.897z"/>
	</g>
</g>
<g>
	<g>
		<path d="M11.996,383.889H3.999c-2.21,0-3.999,1.788-3.999,3.998c0,2.211,1.789,3.999,3.999,3.999h7.997
			c2.21,0,3.999-1.788,3.999-3.999C15.995,385.677,14.206,383.889,11.996,383.889z"/>
	</g>
</g>
<g>
	<g>
		<path d="M75.976,143.962h-31.99c-2.21,0-3.999,1.789-3.999,3.999c0,2.21,1.789,3.999,3.999,3.999h31.99
			c2.211,0,3.999-1.789,3.999-3.999C79.975,145.751,78.186,143.962,75.976,143.962z"/>
	</g>
</g>
<g>
	<g>
		<path d="M211.935,167.954H107.967c-2.21,0-3.999,1.788-3.999,3.999s1.789,3.999,3.999,3.999h103.968
			c2.21,0,3.999-1.788,3.999-3.999S214.145,167.954,211.935,167.954z"/>
	</g>
</g>
<g>
	<g>
		<path d="M91.972,167.954H51.984c-2.211,0-3.999,1.788-3.999,3.999s1.789,3.999,3.999,3.999h39.987c2.21,0,4-1.788,4-3.999
			S94.182,167.954,91.972,167.954z"/>
	</g>
</g>
<g>
	<g>
		<path d="M307.909,191.948H203.937c-2.21,0-3.999,1.789-3.999,3.999c0,2.21,1.789,3.999,3.999,3.999h103.972
			c2.211,0,3.998-1.789,3.998-3.999C311.907,193.737,310.12,191.948,307.909,191.948z"/>
	</g>
</g>
<g>
	<g>
		<path d="M187.942,191.948H59.981c-2.21,0-3.999,1.789-3.999,3.999c0,2.21,1.789,3.999,3.999,3.999h127.961
			c2.21,0,3.999-1.789,3.999-3.999C191.941,193.737,190.152,191.948,187.942,191.948z"/>
	</g>
</g>
<g>
	<g>
		<path d="M83.974,239.932H59.981c-2.21,0-3.999,1.789-3.999,3.999s1.789,3.999,3.999,3.999h23.993c2.21,0,3.998-1.788,3.999-3.999
			C87.973,241.721,86.184,239.932,83.974,239.932z"/>
	</g>
</g>
<g>
	<g>
		<path d="M210.685,239.932H99.969c-2.211,0-3.999,1.789-3.999,3.999s1.789,3.999,3.999,3.999h110.716
			c2.21,0,3.999-1.788,3.999-3.999C214.684,241.721,212.895,239.932,210.685,239.932z"/>
	</g>
</g>
<g>
	<g>
		<path d="M83.974,335.904H59.981c-2.21,0-3.999,1.788-3.999,3.999c0,2.21,1.789,3.998,3.999,3.998h23.993
			c2.21,0,3.998-1.788,3.999-3.998C87.973,337.692,86.184,335.904,83.974,335.904z"/>
	</g>
</g>
<g>
	<g>
		<path d="M210.685,335.904H99.969c-2.211,0-3.999,1.788-3.999,3.999c0,2.21,1.789,3.998,3.999,3.998h110.716
			c2.21,0,3.999-1.788,3.999-3.998C214.684,337.692,212.895,335.904,210.685,335.904z"/>
	</g>
</g>
<g>
	<g>
		<path d="M243.925,215.94H67.979c-2.211,0-3.999,1.789-3.999,3.999c0,2.211,1.789,3.999,3.999,3.999h175.946
			c2.21,0,3.999-1.788,3.999-3.999C247.924,217.729,246.136,215.94,243.925,215.94z"/>
	</g>
</g>
<g>
	<g>
		<path d="M235.927,263.926h-71.978c-2.211,0-3.999,1.788-3.999,3.998c0,2.211,1.789,3.999,3.999,3.999h71.978
			c2.21,0,3.999-1.788,3.999-3.999C239.926,265.714,238.137,263.926,235.927,263.926z"/>
	</g>
</g>
<g>
	<g>
		<path d="M179.945,287.918H51.984c-2.211,0-3.999,1.789-3.999,3.999c0,2.21,1.789,3.999,3.999,3.999h127.961
			c2.21,0,3.999-1.789,3.999-3.999C183.944,289.707,182.155,287.918,179.945,287.918z"/>
	</g>
</g>
<g>
	<g>
		<path d="M139.957,359.897H51.984c-2.211,0-3.999,1.788-3.999,3.998c0,2.211,1.789,3.999,3.999,3.999h87.973
			c2.21,0,3.999-1.788,3.999-3.999C143.956,361.685,142.167,359.897,139.957,359.897z"/>
	</g>
</g>
<g>
	<g>
		<path d="M267.921,311.91H155.952c-2.21,0-3.999,1.789-3.999,3.999c0,2.21,1.789,3.999,3.999,3.999h111.969
			c2.211,0,4-1.789,4-3.999C271.921,313.699,270.132,311.91,267.921,311.91z"/>
	</g>
</g>
<g>
	<g>
		<path d="M139.957,311.91H59.981c-2.21,0-3.999,1.789-3.999,3.999c0,2.21,1.789,3.999,3.999,3.999h79.976
			c2.21,0,3.999-1.789,3.999-3.999C143.956,313.699,142.167,311.91,139.957,311.91z"/>
	</g>
</g>
<g>
	<g>
		<path d="M75.976,383.889h-31.99c-2.21,0-3.999,1.788-3.999,3.998c0,2.211,1.789,3.999,3.999,3.999h31.99
			c2.211,0,3.999-1.788,3.999-3.999C79.975,385.677,78.186,383.889,75.976,383.889z"/>
	</g>
</g>
<g>
	<g>
		<path d="M243.925,287.918H195.94c-2.211,0-3.999,1.789-3.999,3.999c0,2.21,1.789,3.999,3.999,3.999h47.985
			c2.21,0,3.999-1.789,3.999-3.999C247.924,289.707,246.136,287.918,243.925,287.918z"/>
	</g>
</g>
<g>
	<g>
		<path d="M147.954,263.926H59.981c-2.21,0-3.999,1.788-3.999,3.998c0,2.211,1.789,3.999,3.999,3.999h87.973
			c2.211,0,3.999-1.788,3.999-3.999C151.953,265.714,150.164,263.926,147.954,263.926z"/>
	</g>
</g>
<g>
</g>
<g>
</g>
<g>
</g>
<g>
</g>
<g>
</g>
<g>
</g>
<g>
</g>
<g>
</g>
<g>
</g>
<g>
</g>
<g>
</g>
<g>
</g>
<g>
</g>
<g>
</g>
<g>
</g>
</svg>
