<svg xmlns="http://www.w3.org/2000/svg" enable-background="new 0 0 24 24" viewBox="0 0 24 24"><path d="M6.396,12.242c-0.017,0.025-0.047,0.103-0.091,0.235c-0.044,0.132-0.098,0.297-0.16,0.495c-0.063,0.198-0.131,0.421-0.204,0.666c-0.073,0.245-0.149,0.496-0.226,0.751c-0.078,0.256-0.152,0.506-0.223,0.752C5.42,15.386,5.356,15.608,5.3,15.806c-0.056,0.198-0.103,0.364-0.141,0.499c-0.038,0.134-0.061,0.213-0.069,0.238c-0.021,0.079-0.054,0.168-0.101,0.264c-0.046,0.097-0.101,0.188-0.163,0.275s-0.132,0.159-0.207,0.216c-0.076,0.057-0.153,0.086-0.232,0.086c-0.134,0-0.232-0.045-0.292-0.134c-0.061-0.089-0.091-0.253-0.091-0.491v-0.104c0-0.035,0.002-0.072,0.006-0.111c0.004-0.079,0.036-0.228,0.094-0.447c0.058-0.218,0.129-0.465,0.21-0.741c0.081-0.276,0.17-0.56,0.264-0.856c0.094-0.295,0.179-0.56,0.254-0.793c-0.222,0.248-0.463,0.495-0.723,0.741c-0.259,0.246-0.526,0.466-0.798,0.662c-0.272,0.196-0.547,0.356-0.823,0.48c-0.277,0.124-0.542,0.186-0.798,0.186c-0.293,0-0.545-0.065-0.757-0.193c-0.212-0.129-0.386-0.298-0.525-0.506s-0.241-0.444-0.308-0.707C0.034,14.107,0,13.844,0,13.581v-0.097c0-0.03,0.002-0.059,0.006-0.089C0.031,12.919,0.1,12.43,0.21,11.929c0.111-0.501,0.257-1,0.437-1.495c0.18-0.496,0.388-0.981,0.625-1.455c0.237-0.474,0.494-0.922,0.773-1.343c0.279-0.421,0.575-0.81,0.889-1.165c0.314-0.355,0.637-0.66,0.967-0.915C4.232,5.3,4.566,5.101,4.903,4.957c0.337-0.144,0.671-0.216,1.002-0.216c0.381,0,0.75,0.104,1.106,0.312C7.367,5.261,7.7,5.599,8.01,6.065c0.071,0.104,0.116,0.21,0.135,0.316c0.019,0.107,0.029,0.207,0.029,0.302c0,0.223-0.053,0.399-0.16,0.528C7.906,7.34,7.779,7.405,7.633,7.405c-0.134,0-0.259-0.071-0.374-0.212C7.144,7.051,7.015,6.849,6.873,6.586C6.739,6.347,6.591,6.175,6.43,6.068s-0.336-0.16-0.525-0.16c-0.293,0-0.607,0.122-0.939,0.365C4.633,6.516,4.303,6.838,3.977,7.237s-0.64,0.855-0.939,1.369C2.738,9.12,2.473,9.646,2.242,10.184c-0.23,0.538-0.413,1.069-0.55,1.592s-0.204,0.994-0.204,1.411c0,0.139,0.009,0.282,0.029,0.428s0.054,0.279,0.107,0.398c0.052,0.119,0.123,0.217,0.214,0.294c0.09,0.077,0.204,0.115,0.342,0.115c0.155,0,0.331-0.052,0.527-0.156c0.197-0.104,0.401-0.24,0.612-0.409c0.212-0.169,0.424-0.36,0.638-0.573c0.214-0.213,0.413-0.429,0.597-0.647c0.184-0.218,0.348-0.428,0.49-0.629c0.143-0.201,0.249-0.376,0.32-0.525l0.584-1.748C6.02,9.547,6.114,9.413,6.228,9.333c0.115-0.079,0.234-0.119,0.355-0.119c0.058,0,0.117,0.01,0.176,0.03c0.058,0.02,0.111,0.051,0.157,0.093c0.046,0.042,0.083,0.097,0.11,0.164c0.027,0.067,0.041,0.145,0.041,0.235c0,0.238-0.021,0.461-0.063,0.67c-0.042,0.209-0.096,0.412-0.16,0.61s-0.137,0.398-0.217,0.599C6.548,11.814,6.471,12.024,6.396,12.242L6.396,12.242z M14.318,13.701c-0.185,0.248-0.399,0.49-0.644,0.726c-0.245,0.236-0.498,0.446-0.757,0.629s-0.515,0.331-0.766,0.443c-0.252,0.112-0.478,0.168-0.679,0.168c-0.201,0-0.364-0.067-0.49-0.201c-0.125-0.134-0.188-0.362-0.188-0.685c0-0.228,0.034-0.494,0.101-0.796c-0.109,0.194-0.245,0.39-0.408,0.588c-0.163,0.198-0.35,0.379-0.56,0.543s-0.444,0.297-0.704,0.398c-0.259,0.102-0.542,0.153-0.848,0.153c-0.138,0-0.272-0.017-0.399-0.052s-0.24-0.094-0.336-0.178c-0.096-0.084-0.174-0.197-0.232-0.339c-0.058-0.141-0.088-0.319-0.088-0.532c0-0.005,0.009-0.081,0.025-0.227c0.016-0.146,0.07-0.377,0.16-0.692c0.09-0.315,0.23-0.723,0.418-1.224c0.189-0.501,0.455-1.108,0.798-1.823c0.088-0.188,0.19-0.324,0.304-0.406c0.115-0.082,0.24-0.123,0.374-0.123c0.058,0,0.119,0.009,0.182,0.026c0.063,0.018,0.121,0.045,0.176,0.082c0.054,0.037,0.098,0.084,0.132,0.141c0.034,0.057,0.051,0.123,0.051,0.197c0,0.05-0.006,0.097-0.019,0.141c-0.021,0.085-0.066,0.195-0.135,0.331c-0.069,0.137-0.15,0.293-0.242,0.469c-0.092,0.176-0.19,0.366-0.292,0.57c-0.103,0.203-0.198,0.414-0.286,0.632c-0.088,0.218-0.163,0.441-0.226,0.666c-0.063,0.226-0.098,0.446-0.107,0.659c0,0.089,0.021,0.171,0.063,0.246c0.042,0.074,0.111,0.112,0.207,0.112c0.272,0,0.532-0.089,0.779-0.268c0.247-0.178,0.475-0.401,0.685-0.666c0.21-0.265,0.399-0.55,0.569-0.856c0.17-0.305,0.311-0.584,0.424-0.837c0.08-0.169,0.15-0.35,0.21-0.543s0.127-0.372,0.198-0.536c0.071-0.164,0.153-0.3,0.245-0.409c0.092-0.109,0.207-0.164,0.346-0.164c0.15,0,0.27,0.057,0.358,0.171s0.132,0.251,0.132,0.409c0,0.089-0.028,0.212-0.085,0.369c-0.057,0.156-0.128,0.335-0.214,0.536c-0.086,0.201-0.179,0.416-0.279,0.644c-0.101,0.228-0.194,0.46-0.279,0.696c-0.086,0.236-0.157,0.466-0.214,0.692c-0.056,0.226-0.085,0.436-0.085,0.629c0,0.179,0.092,0.268,0.277,0.268c0.13,0,0.291-0.045,0.484-0.134c0.193-0.089,0.395-0.215,0.607-0.376c0.212-0.161,0.423-0.351,0.634-0.57c0.212-0.218,0.399-0.454,0.562-0.707L14.318,13.701L14.318,13.701z"/><path d="M14.513,13.329c-0.046,0.114-0.091,0.247-0.135,0.398c-0.044,0.151-0.066,0.287-0.066,0.406c0,0.074,0.013,0.134,0.038,0.179s0.073,0.067,0.145,0.067c0.088,0,0.197-0.031,0.33-0.093c0.132-0.062,0.274-0.144,0.427-0.246c0.153-0.101,0.312-0.218,0.478-0.35c0.165-0.131,0.33-0.268,0.493-0.409c0.163-0.142,0.319-0.283,0.468-0.424c0.149-0.142,0.282-0.272,0.399-0.391c0.034-0.035,0.073-0.06,0.119-0.074c0.046-0.015,0.086-0.022,0.119-0.022c0.083,0,0.153,0.035,0.207,0.104c0.054,0.069,0.081,0.161,0.081,0.275c0,0.104-0.029,0.221-0.088,0.35s-0.161,0.256-0.308,0.379c-0.268,0.293-0.538,0.57-0.81,0.833c-0.272,0.263-0.543,0.495-0.813,0.696c-0.27,0.201-0.538,0.361-0.804,0.48c-0.266,0.119-0.525,0.178-0.776,0.178c-0.172,0-0.315-0.027-0.431-0.082c-0.115-0.055-0.207-0.129-0.277-0.223s-0.118-0.206-0.148-0.335c-0.029-0.129-0.044-0.265-0.044-0.409c0-0.243,0.031-0.493,0.091-0.748c0.061-0.255,0.133-0.49,0.217-0.703c0.147-0.387,0.295-0.771,0.446-1.153c0.15-0.382,0.289-0.732,0.415-1.049l1.903-4.8c0.076-0.193,0.177-0.33,0.305-0.409c0.128-0.079,0.257-0.119,0.386-0.119c0.13,0,0.248,0.042,0.355,0.126c0.107,0.084,0.16,0.221,0.16,0.409c0,0.089-0.018,0.184-0.053,0.283c-0.036,0.099-0.081,0.206-0.135,0.32c-0.105,0.233-0.23,0.518-0.374,0.855c-0.145,0.337-0.299,0.704-0.465,1.101c-0.165,0.397-0.335,0.81-0.509,1.239c-0.174,0.429-0.344,0.847-0.509,1.254c-0.165,0.407-0.32,0.793-0.465,1.157C14.742,12.744,14.617,13.061,14.513,13.329L14.513,13.329z"/><path d="M23.416,11.981c0.058-0.04,0.113-0.072,0.163-0.097s0.098-0.037,0.145-0.037c0.092,0,0.161,0.041,0.207,0.123C23.977,12.052,24,12.153,24,12.272c0,0.129-0.028,0.26-0.085,0.394c-0.056,0.134-0.141,0.245-0.254,0.335c-0.448,0.397-0.848,0.759-1.2,1.086c-0.352,0.327-0.684,0.609-0.996,0.845c-0.312,0.236-0.617,0.418-0.914,0.547c-0.297,0.129-0.616,0.193-0.955,0.193c-0.319,0-0.565-0.07-0.738-0.208c-0.174-0.139-0.261-0.33-0.261-0.573v-0.056c0-0.017,0.002-0.038,0.006-0.063c0.016-0.149,0.082-0.32,0.195-0.513c0.113-0.193,0.249-0.394,0.408-0.603c0.159-0.209,0.329-0.419,0.509-0.632c0.18-0.213,0.346-0.416,0.5-0.607c0.153-0.191,0.279-0.366,0.38-0.525s0.151-0.287,0.151-0.387c0-0.06-0.021-0.107-0.063-0.141c-0.042-0.035-0.111-0.052-0.207-0.052c-0.168,0-0.34,0.043-0.518,0.13c-0.178,0.087-0.354,0.203-0.527,0.349c-0.174,0.146-0.344,0.314-0.509,0.503s-0.32,0.384-0.465,0.588c-0.145,0.204-0.277,0.408-0.396,0.614c-0.119,0.206-0.221,0.396-0.304,0.57c-0.025,0.055-0.061,0.132-0.107,0.231c-0.046,0.099-0.096,0.211-0.15,0.335c-0.055,0.124-0.112,0.252-0.173,0.383c-0.061,0.132-0.116,0.256-0.166,0.372c-0.051,0.117-0.096,0.22-0.135,0.313c-0.04,0.092-0.068,0.155-0.085,0.19c-0.021,0.045-0.056,0.129-0.104,0.253c-0.048,0.124-0.103,0.269-0.167,0.436c-0.063,0.166-0.129,0.341-0.197,0.525c-0.069,0.184-0.134,0.357-0.195,0.521c-0.061,0.164-0.114,0.307-0.16,0.431c-0.046,0.124-0.076,0.208-0.088,0.253c-0.042,0.129-0.091,0.25-0.148,0.365c-0.056,0.114-0.121,0.215-0.195,0.302c-0.073,0.087-0.157,0.156-0.252,0.208c-0.094,0.052-0.2,0.078-0.317,0.078c-0.151,0-0.275-0.036-0.374-0.108c-0.098-0.072-0.148-0.21-0.148-0.413c0-0.099,0.013-0.201,0.038-0.305s0.057-0.207,0.094-0.309c0.038-0.102,0.076-0.201,0.116-0.297c0.04-0.097,0.076-0.19,0.11-0.279c0.226-0.496,0.457-0.994,0.691-1.492c0.235-0.499,0.46-0.992,0.675-1.481c0.216-0.488,0.416-0.969,0.6-1.44c0.184-0.471,0.337-0.923,0.458-1.354c0.034-0.089,0.08-0.216,0.138-0.38s0.125-0.325,0.201-0.484c0.076-0.159,0.16-0.297,0.254-0.413c0.094-0.117,0.196-0.175,0.304-0.175c0.168,0,0.289,0.038,0.364,0.115s0.113,0.19,0.113,0.339c0,0.03-0.004,0.077-0.013,0.141c-0.009,0.064-0.019,0.133-0.031,0.205c-0.013,0.072-0.026,0.14-0.041,0.205c-0.015,0.064-0.029,0.111-0.041,0.141c0.155-0.169,0.322-0.336,0.503-0.503c0.18-0.166,0.366-0.316,0.56-0.45c0.192-0.134,0.389-0.243,0.59-0.328c0.201-0.084,0.402-0.126,0.603-0.126c0.138,0,0.275,0.02,0.411,0.06c0.136,0.04,0.257,0.098,0.364,0.175c0.107,0.077,0.194,0.174,0.261,0.29c0.067,0.117,0.101,0.252,0.101,0.406c0,0.204-0.051,0.421-0.154,0.651c-0.103,0.231-0.232,0.463-0.386,0.696c-0.155,0.233-0.323,0.46-0.503,0.681c-0.18,0.221-0.349,0.422-0.506,0.603c-0.157,0.181-0.289,0.335-0.396,0.461c-0.107,0.127-0.163,0.212-0.167,0.257c0,0.06,0.019,0.108,0.056,0.145c0.037,0.038,0.101,0.056,0.189,0.056c0.071,0,0.176-0.04,0.314-0.119c0.138-0.079,0.332-0.217,0.581-0.413s0.565-0.459,0.949-0.789C22.382,12.898,22.855,12.483,23.416,11.981L23.416,11.981z"/></svg>