<?xml version="1.0"?>
<svg xmlns="http://www.w3.org/2000/svg" viewBox="0 0 64 64" width="512" height="512"><g id="js-file"><path d="M61,6H49.414L45.707,2.293A1,1,0,0,0,45,2H17a1,1,0,0,0-1,1V21H3a1,1,0,0,0-1,1V42a1,1,0,0,0,1,1H16V57a1,1,0,0,0,1,1h3v3a1,1,0,0,0,1,1H61a1,1,0,0,0,1-1V7A1,1,0,0,0,61,6ZM46,5.414,54.586,14H47a1,1,0,0,1-1-1ZM4,23H52V41H4ZM18,43H53a1,1,0,0,0,1-1V22a1,1,0,0,0-1-1H18V4H44v9a3,3,0,0,0,3,3h9V56H18ZM60,60H22V58H57a1,1,0,0,0,1-1V15a1,1,0,0,0-.293-.707L51.414,8H60Z"/><path d="M38,25H30a1,1,0,0,0-1,1v6a1,1,0,0,0,1,1h7v4H31V35H29v3a1,1,0,0,0,1,1h8a1,1,0,0,0,1-1V32a1,1,0,0,0-1-1H31V27h6v2h2V26A1,1,0,0,0,38,25Z"/><path d="M25,37H19V32H17v6a1,1,0,0,0,1,1h8a1,1,0,0,0,1-1V25H25Z"/></g></svg>
