<svg height="512pt" viewBox="0 0 512 512" width="512pt" xmlns="http://www.w3.org/2000/svg"><path d="m265.707031 470.261719h49.507813c3.597656 0 6.941406-1.117188 9.707031-3.015625 2.761719 1.898437 6.105469 3.015625 9.707031 3.015625h49.503906c3.601563 0 6.941407-1.117188 9.707032-3.015625 2.765625 1.898437 6.105468 3.015625 9.707031 3.015625h49.507813c9.484374 0 17.207031-7.722657 17.207031-17.207031v-49.507813c0-3.601563-1.117188-6.941406-3.015625-9.707031 1.898437-2.765625 3.015625-6.105469 3.015625-9.707032v-49.503906c0-3.601562-1.117188-6.945312-3.015625-9.707031 1.898437-2.769531 3.015625-6.109375 3.015625-9.707031v-49.507813c0-3.601562-1.117188-6.941406-3.015625-9.707031 1.898437-2.765625 3.015625-6.105469 3.015625-9.707031v-49.507813c0-3.597656-1.117188-6.941406-3.015625-9.707031 1.898437-2.765625 3.015625-6.105469 3.015625-9.707031v-7.339844c0-4.140625-3.359375-7.5-7.5-7.5-4.144531 0-7.5 3.359375-7.5 7.5v7.339844c0 1.21875-.992188 2.207031-2.207031 2.207031h-51.714844v-53.917969h51.714844c1.214843 0 2.207031.988282 2.207031 2.207032v6.769531c0 4.140625 3.355469 7.5 7.5 7.5 4.140625 0 7.5-3.359375 7.5-7.5v-6.769531c0-3.601563-1.117188-6.941407-3.015625-9.707032 1.898437-2.765625 3.015625-6.105468 3.015625-9.707031v-49.507813c0-9.484374-7.722657-17.207031-17.207031-17.207031h-49.507813c-3.601563 0-6.941406 1.117188-9.707031 3.015625-2.765625-1.898437-6.105469-3.015625-9.707032-3.015625h-49.503906c-3.601562 0-6.945312 1.117188-9.707031 3.015625-2.765625-1.898437-6.109375-3.015625-9.707031-3.015625h-49.507813c-3.601562 0-6.941406 1.117188-9.707031 3.015625-2.765625-1.898437-6.105469-3.015625-9.707031-3.015625h-49.507813c-3.597656 0-6.941406 1.117188-9.707031 3.015625-2.761719-1.898437-6.105469-3.015625-9.707031-3.015625h-49.503906c-3.601563 0-6.941407 1.117188-9.707032 3.015625-2.765625-1.898437-6.105468-3.015625-9.707031-3.015625h-49.507813c-9.484374 0-17.207031 7.722657-17.207031 17.207031v49.507813c0 3.601563 1.117188 6.941406 3.015625 9.707031-1.898437 2.765625-3.015625 6.105469-3.015625 9.707032v49.503906c0 3.601562 1.117188 6.945312 3.015625 9.707031-1.898437 2.769531-3.015625 6.109375-3.015625 9.707031v49.507813c0 3.601562 1.117188 6.941406 3.015625 9.707031-1.898437 2.765625-3.015625 6.105469-3.015625 9.707031v49.507813c0 3.597656 1.117188 6.941406 3.015625 9.707031-1.898437 2.765625-3.015625 6.105469-3.015625 9.707031v49.503906c0 3.601563 1.117188 6.941407 3.015625 9.707032-1.898437 2.765625-3.015625 6.105468-3.015625 9.707031v49.507813c0 9.484374 7.722657 17.207031 17.207031 17.207031h49.507813c3.601563 0 6.941406-1.117188 9.707031-3.015625 2.765625 1.898437 6.105469 3.015625 9.707032 3.015625h49.503906c3.601562 0 6.945312-1.117188 9.707031-3.015625 2.765625 1.898437 6.109375 3.015625 9.707031 3.015625h49.507813c3.601562 0 6.941406-1.117188 9.707031-3.015625 2.765625 1.898437 6.105469 3.015625 9.707031 3.015625zm-208.96875-86.128907v-49.503906c0-1.21875.992188-2.207031 2.207031-2.207031h51.714844v53.917969h-51.714844c-1.214843 0-2.207031-.988282-2.207031-2.207032zm0-68.917968v-49.507813c0-1.21875.992188-2.207031 2.207031-2.207031h51.714844v53.921875h-51.714844c-1.214843 0-2.207031-.992187-2.207031-2.207031zm0-68.921875v-49.507813c0-1.214844.992188-2.207031 2.207031-2.207031h51.714844v53.921875h-51.714844c-1.214843 0-2.207031-.988281-2.207031-2.207031zm0-68.921875v-49.503906c0-1.21875.992188-2.207032 2.207031-2.207032h51.714844v53.917969h-51.714844c-1.214843 0-2.207031-.988281-2.207031-2.207031zm398.523438 88.335937v49.507813c0 1.214844-.992188 2.207031-2.207031 2.207031h-51.714844v-53.921875h51.714844c1.214843 0 2.207031.988281 2.207031 2.207031zm0 68.921875v49.503906c0 1.21875-.992188 2.207032-2.207031 2.207032h-51.714844v-53.917969h51.714844c1.214843 0 2.207031.988281 2.207031 2.207031zm-329.601563-71.128906h8.976563c4.140625 0 7.5-3.359375 7.5-7.5s-3.359375-7.5-7.5-7.5h-8.976563v-53.921875h53.917969v53.921875h-9.546875c-4.144531 0-7.5 3.359375-7.5 7.5s3.355469 7.5 7.5 7.5h9.546875v53.921875h-53.917969zm260.679688-15h-53.917969v-53.921875h53.917969zm-122.839844 15h53.921875v53.921875h-53.921875zm53.921875-15h-53.921875v-53.921875h53.921875zm-68.921875 0h-53.921875v-53.921875h53.921875zm-53.921875 15h53.921875v53.921875h-53.921875zm68.921875 68.921875h53.921875v53.917969h-53.921875zm68.921875-68.921875h53.917969v53.921875h-53.917969zm53.917969-83.921875h-53.917969v-53.917969h53.917969zm-68.917969 0h-53.921875v-53.917969h53.921875zm-68.921875 0h-53.921875v-53.917969h53.921875zm-68.921875 0h-53.917969v-53.917969h53.917969zm-53.917969 152.84375h53.917969v53.917969h-53.917969zm68.917969 0h53.921875v53.917969h-53.921875zm120.636719 122.839844h-49.507813c-1.21875 0-2.207031-.992188-2.207031-2.207031v-51.714844h53.921875v51.714844c0 1.214843-.992187 2.207031-2.207031 2.207031zm68.917968 0h-49.503906c-1.21875 0-2.207031-.992188-2.207031-2.207031v-51.714844h8.882813c4.140624 0 7.5-3.359375 7.5-7.5s-3.359376-7.5-7.5-7.5h-8.882813v-53.917969h53.917969v53.917969h-9.644532c-4.140624 0-7.5 3.359375-7.5 7.5s3.359376 7.5 7.5 7.5h9.644532v51.714844c0 1.214843-.988282 2.207031-2.207032 2.207031zm71.128907-2.207031c0 1.214843-.992188 2.207031-2.207031 2.207031h-49.507813c-1.21875 0-2.207031-.992188-2.207031-2.207031v-51.714844h51.714844c1.214843 0 2.207031.988281 2.207031 2.207031zm-2.207031-258.476563c1.214843 0 2.207031.992187 2.207031 2.207031v49.507813c0 1.21875-.992188 2.207031-2.207031 2.207031h-51.714844v-53.921875zm-49.507813-137.839844h49.507813c1.214843 0 2.207031.992188 2.207031 2.207031v49.507813c0 1.21875-.992188 2.207031-2.207031 2.207031h-51.714844v-51.714844c0-1.214843.988281-2.207031 2.207031-2.207031zm-68.917969 0h49.503906c1.21875 0 2.207032.992188 2.207032 2.207031v51.714844h-53.917969v-51.714844c0-1.214843.988281-2.207031 2.207031-2.207031zm-68.921875 0h49.507813c1.214844 0 2.207031.992188 2.207031 2.207031v51.714844h-53.921875v-51.714844c0-1.214843.988281-2.207031 2.207031-2.207031zm-68.921875 0h49.507813c1.21875 0 2.207031.992188 2.207031 2.207031v51.714844h-53.921875v-51.714844c0-1.214843.992187-2.207031 2.207031-2.207031zm-68.917968 0h49.503906c1.21875 0 2.207031.992188 2.207031 2.207031v51.714844h-53.917969v-51.714844c0-1.214843.988282-2.207031 2.207032-2.207031zm-71.128907 2.207031c0-1.214843.992188-2.207031 2.207031-2.207031h49.507813c1.21875 0 2.207031.992188 2.207031 2.207031v51.714844h-51.714844c-1.214843 0-2.207031-.988281-2.207031-2.207031zm51.714844 396.316407h-49.507813c-1.214843 0-2.207031-.992188-2.207031-2.207031v-49.507813c0-1.21875.992188-2.207031 2.207031-2.207031h51.714844v51.714844c0 1.214843-.988281 2.207031-2.207031 2.207031zm68.917969 0h-49.503906c-1.21875 0-2.207032-.992188-2.207032-2.207031v-51.714844h53.917969v51.714844c0 1.214843-.988281 2.207031-2.207031 2.207031zm68.921875 0h-49.507813c-1.214844 0-2.207031-.992188-2.207031-2.207031v-51.714844h53.921875v51.714844c0 1.214843-.988281 2.207031-2.207031 2.207031zm0 0"/><path d="m504.5 264.691406c-4.144531 0-7.5 3.359375-7.5 7.5v224.808594h-227.921875c-4.140625 0-7.5 3.359375-7.5 7.5s3.359375 7.5 7.5 7.5h235.421875c4.144531 0 7.5-3.359375 7.5-7.5v-232.308594c0-4.140625-3.355469-7.5-7.5-7.5zm0 0"/><path d="m250.421875 7.5c0-4.140625-3.359375-7.5-7.5-7.5h-235.421875c-4.144531 0-7.5 3.359375-7.5 7.5v232.308594c0 4.140625 3.355469 7.5 7.5 7.5s7.5-3.359375 7.5-7.5v-224.808594h227.921875c4.140625 0 7.5-3.359375 7.5-7.5zm0 0"/></svg>