<?xml version="1.0" encoding="iso-8859-1"?>
<!-- Generator: Adobe Illustrator 18.0.0, SVG Export Plug-In . SVG Version: 6.00 Build 0)  -->
<!DOCTYPE svg PUBLIC "-//W3C//DTD SVG 1.1//EN" "http://www.w3.org/Graphics/SVG/1.1/DTD/svg11.dtd">
<svg version="1.1" id="Capa_1" xmlns="http://www.w3.org/2000/svg" xmlns:xlink="http://www.w3.org/1999/xlink" x="0px" y="0px"
	 viewBox="0 0 51.888 51.888" style="enable-background:new 0 0 51.888 51.888;" xml:space="preserve">
<g>
	<path style="fill:#1D1D1B;" d="M16.095,45.257c-3.243-8.982-6.172-18.229-10.059-26.954c-0.113-0.253-0.519-0.073-0.443,0.187
		c0.053,0.181,0.112,0.36,0.165,0.54c-0.155-0.108-0.394-0.112-0.492,0.089c-4.277,8.729,1.076,22.403,10.008,26.254
		c0.012,0.034,0.025,0.067,0.038,0.101C15.492,45.957,16.273,45.751,16.095,45.257z M5.873,19.407
		c2.525,8.434,5.92,16.706,9.018,24.951C7.203,38.972,2.527,28.455,5.873,19.407z"/>
	<path style="fill:#1D1D1B;" d="M32.557,46.548c-1.564-5.548-3.474-11.01-5.519-16.397c0.005-0.016,0.011-0.033,0.017-0.049
		c0.209-0.623-0.755-0.873-0.976-0.269c-0.232,0.633-0.467,1.266-0.701,1.899c-0.619-0.003-1.24-0.002-1.859,0.014
		c-0.07,0.002-0.071,0.108,0,0.11c0.602,0.016,1.206,0.016,1.808,0.014c-0.332,0.9-0.664,1.8-0.996,2.7
		c-0.481,0.046-0.962,0.088-1.443,0.137c-0.081,0.008-0.083,0.136,0,0.129c0.466-0.043,0.93-0.093,1.396-0.138
		c-0.337,0.911-0.672,1.822-1.009,2.734c-0.474,0.043-0.949,0.052-1.441-0.003c-0.061-0.007-0.059,0.087,0,0.095
		c0.454,0.061,0.922,0.083,1.386,0.057c-0.293,0.795-0.589,1.589-0.88,2.385c-0.802-0.01-1.604-0.001-2.406,0.001
		c-0.075,0-0.075,0.116,0,0.116c0.787,0.002,1.575,0.01,2.362,0.001c-0.344,0.942-0.697,1.882-1.033,2.827
		c-0.76-0.025-1.501,0.117-2.204,0.43c-0.046,0.021-0.013,0.103,0.035,0.083c0.687-0.286,1.396-0.409,2.128-0.397
		c-0.296,0.831-0.595,1.661-0.882,2.494c-0.767,0.059-1.534,0.122-2.3,0.185c-0.058,0.005-0.058,0.095,0,0.091
		c0.757-0.061,1.513-0.123,2.27-0.188c-0.151,0.437-0.309,0.873-0.457,1.311c-0.047,0.139,0.014,0.259,0.113,0.336
		c-0.038,0.166,0.028,0.346,0.249,0.398c3.899,0.925,7.836,1.078,11.746,0.083c0.335-0.085,0.411-0.378,0.321-0.621
		C32.487,47.032,32.637,46.834,32.557,46.548z M20.549,46.971c2.384-5.149,4.358-10.532,6.176-15.91
		c1.421,5.296,2.988,10.57,4.856,15.726C27.901,47.41,24.247,47.584,20.549,46.971z"/>
	<path style="fill:#1D1D1B;" d="M27.671,0.056C13.578-0.949,0.056,11.658,0.172,25.749c0.111,13.424,9.643,27.67,24.462,26.005
		c0.088,0.069,0.194,0.122,0.336,0.125c13.467,0.322,25.738-9.722,26.687-23.445C52.614,14.591,41.847,1.067,27.671,0.056z
		 M50.232,23.694c-0.93-0.08-1.867-0.027-2.789,0.105c-0.071-0.797-0.205-1.592-0.368-2.383c0.902-0.007,1.813-0.085,2.695-0.248
		C49.961,22.001,50.126,22.841,50.232,23.694z M48.43,17.072c0.247,0.591,0.477,1.189,0.679,1.797
		c-0.87-0.016-1.741,0.001-2.61,0.007c-0.083,0.001-0.083,0.128,0,0.129c0.886,0.006,1.775,0.025,2.661,0.007
		c0.214,0.656,0.407,1.319,0.567,1.991c-0.897,0.106-1.791,0.189-2.69,0.244c-0.3-1.396-0.734-2.779-1.342-4.131
		c0.9,0.015,1.804,0.038,2.701-0.008C48.419,17.106,48.42,17.086,48.43,17.072z M38.081,42.713
		c-0.021-0.004-0.042-0.004-0.063-0.008c0.451-1.025,0.909-2.076,1.365-3.144c0-0.007,0.009-0.009,0.007-0.016
		c2.762-6.47,5.448-13.64,6.101-20.408c2.032,9.422-0.054,18.064-7.879,24.489c0.116-0.263,0.235-0.532,0.352-0.799
		c0.028,0.004,0.055,0.005,0.083,0.008C38.126,42.846,38.162,42.729,38.081,42.713z M48.389,16.978
		c-0.915-0.047-1.837-0.022-2.755-0.007c-0.003-0.006-0.005-0.012-0.008-0.018c-0.009-0.09-0.042-0.168-0.099-0.225
		c-0.058-0.122-0.102-0.248-0.162-0.369c-0.142-0.286-0.598-0.086-0.511,0.215c0.017,0.058,0.029,0.115,0.045,0.173
		c-0.029,0.04-0.051,0.088-0.063,0.145c-0.019,0.092-0.042,0.182-0.062,0.273c-1.04-0.023-2.087,0.001-3.125,0.022
		c-0.085,0.002-0.086,0.131,0,0.133c1.025,0.02,2.058,0.044,3.085,0.022c-0.066,0.287-0.132,0.575-0.196,0.863
		c-0.973-0.047-1.958,0.038-2.914,0.182c-0.051,0.008-0.04,0.098,0.012,0.091c0.963-0.12,1.906-0.124,2.863-0.099
		c-0.166,0.737-0.347,1.468-0.53,2.197c-0.633,0.051-1.267,0.124-1.897,0.189c-0.102,0.011-0.105,0.171,0,0.162
		c0.616-0.053,1.236-0.101,1.852-0.167c-0.247,0.973-0.503,1.941-0.771,2.905c-0.639,0.079-1.275,0.094-1.923,0.015
		c-0.112-0.014-0.11,0.161,0,0.175c0.628,0.082,1.252,0.088,1.869-0.004c-0.32,1.144-0.642,2.288-0.986,3.423
		c-0.576-0.003-1.153,0.001-1.729,0.007c-0.118,0.001-0.118,0.182,0,0.184c0.556,0.006,1.113,0.01,1.669,0.008
		c-0.433,1.42-0.877,2.837-1.338,4.248c-0.453,0.015-0.903-0.044-1.362-0.214c-0.106-0.039-0.151,0.129-0.047,0.169
		c0.428,0.165,0.883,0.254,1.338,0.258c-0.393,1.198-0.789,2.395-1.193,3.592c-0.529,0.031-1.051-0.007-1.592-0.17
		c-0.004-0.001-0.007,0.002-0.012,0.001c1.185-3.402,2.209-6.941,2.547-10.487c0.132-1.384,0.147-2.697-0.266-4.039
		c-0.3-0.974-2.006-3.531-2.752-5.837c3.296,0.158,6.673,0.165,9.965,0.026c0.046-0.002,0.068-0.033,0.075-0.067
		C47.766,15.615,48.097,16.288,48.389,16.978z M32.89,13.943c0.066-0.443-0.408-0.693-0.698-0.506
		c-2.086-0.317-4.264-0.055-6.369,0.017c-1.081,0.037-2.162,0.078-3.242,0.126c-0.835,0.037-3.188,0.599-3.83-0.066
		c-0.084-0.087-0.18-0.092-0.27-0.069c-0.155-0.029-0.326,0.023-0.416,0.172c-0.241,0.4-0.215,0.896-0.21,1.353
		c0.006,0.484,0.032,0.971,0.159,1.44c0.009,0.031,0.033,0.041,0.047,0.066c-0.007,0.112,0.021,0.224,0.116,0.3
		c0.81,0.648,2.302,0.383,3.308,0.072c0.222,2.873,1.335,5.991,2.407,8.655c-0.925,1.799-1.467,3.798-2.087,5.718
		c-0.463,1.433-1.113,2.952-1.38,4.476c-2.18-6.226-4.572-12.43-6.881-18.607c0.376,0.062,0.75,0.126,1.129,0.177
		c0.505,0.067,0.993,0.251,1.401-0.122c0.011-0.01,0.01-0.029,0.02-0.041c0.216,0.001,0.425-0.141,0.439-0.433
		c0.036-0.769-0.025-1.542,0.017-2.316c0.01-0.184-0.101-0.345-0.242-0.455c-0.015-0.156-0.125-0.311-0.33-0.336
		c-2.172-0.272-4.308-0.398-6.493-0.306c8.296-8.12,19.104-9.407,29.081-3.455c-2.241,0.61-3.015,2.828-2.369,5.276
		c1.024,3.881,3.409,5.993,2.919,10.48c-0.42,3.854-1.704,7.792-2.821,11.526c-1.648-6.734-4.17-13.673-6.749-20.097
		c0.944,0.227,2.063,0.389,2.81-0.037c0.138-0.079,0.184-0.206,0.183-0.333c0.127-0.044,0.23-0.144,0.264-0.326
		C32.942,15.53,32.774,14.722,32.89,13.943z M40.828,45.541c-0.01-0.003-0.011-0.017-0.023-0.015
		c-2.115,0.305-4.184,0.594-6.324,0.648c-0.09,0.002-0.09,0.139,0,0.139c2.026-0.001,4.113-0.141,6.098-0.588
		c-0.962,0.701-1.968,1.345-3.024,1.909c-2.07,0.273-4.138,0.403-6.236,0.344c-0.072-0.002-0.072,0.109,0,0.112
		c1.913,0.09,3.818,0.032,5.713-0.186c-3.657,1.849-7.793,2.861-12.062,2.815c-0.22-0.002-0.367,0.1-0.457,0.24
		C9.96,49.693,0.579,38.998,1.338,24.016c0.677-13.364,14.764-24.8,27.895-22.572c1.177,0.2,2.317,0.502,3.428,0.87
		c-0.938-0.063-1.878-0.095-2.818-0.102c-0.079-0.001-0.079,0.121,0,0.122c1.195,0.029,2.38,0.122,3.563,0.238
		c1.124,0.415,2.216,0.9,3.26,1.468c-1.22-0.059-2.442-0.098-3.661-0.144c-0.09-0.003-0.089,0.135,0,0.139
		c1.319,0.061,2.64,0.13,3.96,0.17c1.028,0.577,2.018,1.216,2.955,1.926c-1.46-0.069-2.924-0.104-4.384-0.156
		c-0.084-0.003-0.084,0.127,0,0.131c1.535,0.069,3.074,0.159,4.612,0.203c0.763,0.591,1.502,1.212,2.194,1.883
		c-1.037,0.177-1.957,0.194-3.003-0.04c-0.043-0.01-0.059,0.051-0.018,0.065c0.991,0.351,2.146,0.416,3.159,0.108
		c0.801,0.788,1.553,1.625,2.249,2.507c-1.724-0.094-3.479,0.049-5.187,0.261c-0.075,0.009-0.078,0.128,0,0.12
		c1.782-0.176,3.547-0.175,5.333-0.2c0.937,1.209,1.776,2.495,2.494,3.848c-0.009-0.004-0.015-0.012-0.027-0.012
		c-3.304-0.14-6.695-0.132-10.003,0.027c-0.646-2.079-0.472-3.928,2.277-4.189c0.657-0.062,0.681-1.075,0-1.044
		c-0.064,0.003-0.115,0.022-0.177,0.027c0.092-0.214,0.065-0.487-0.176-0.663C29.769,2.116,16.264,3.74,8.813,12.816
		c-0.139,0.17-0.113,0.365-0.014,0.503c-0.542,0.197-0.498,1.096,0.174,1.094c2.152-0.004,4.298-0.079,6.446-0.138
		c-0.006,0.029-0.026,0.047-0.029,0.079c-0.052,0.6-0.038,1.308,0.104,1.936c-0.193-0.034-0.4-0.043-0.618-0.068
		c-0.581-0.066-1.16-0.119-1.744-0.159c-0.405-0.028-0.575,0.474-0.399,0.76c1.905,6.983,4.368,14.203,7.467,20.748
		c0.203,0.429,0.926,0.127,0.771-0.325c-0.038-0.111-0.079-0.221-0.117-0.332c0.984-1.452,1.411-3.32,1.964-4.967
		c0.68-2.023,1.505-4.077,1.841-6.188c0.089-0.089,0.138-0.219,0.091-0.39c-0.776-2.837-1.399-5.941-2.484-8.665
		c-0.05-0.124-0.155-0.204-0.272-0.244c0.029-0.2-0.085-0.417-0.346-0.441c-0.608-0.057-1.219-0.07-1.83-0.089
		c-0.386-0.012-0.786-0.055-1.157,0.029c0.013-0.329,0.019-0.659,0.051-0.988c0.018-0.188,0.052-0.375,0.076-0.562
		c1.109,0.692,3.263,0.21,4.332,0.19c2.838-0.054,5.968,0.149,8.769-0.452c-0.156,0.637-0.265,1.376-0.095,1.973
		c-0.392-0.028-0.8,0.04-1.189,0.048c-0.597,0.013-1.196-0.01-1.791-0.06c-0.248-0.021-0.36,0.217-0.315,0.416
		c0.002,0.033-0.002,0.063,0.009,0.1c1.98,7.156,4.375,14.786,7.431,21.558c0.074,0.164,0.232,0.186,0.364,0.129
		c0.204,0.076,0.47,0.013,0.569-0.252c0.315-0.846,0.627-1.706,0.93-2.573c0.006,0.005,0.008,0.012,0.017,0.015
		c0.508,0.161,1.041,0.234,1.569,0.211c-0.447,1.324-0.897,2.649-1.347,3.978c-0.492,0.079-0.985,0.155-1.477,0.236
		c-0.099,0.016-0.057,0.166,0.042,0.151c0.461-0.073,0.921-0.152,1.382-0.227c-0.308,0.91-0.616,1.822-0.921,2.736
		c-0.788-0.09-1.58-0.139-2.376-0.103c-0.085,0.004-0.086,0.134,0,0.133c0.781-0.008,1.555,0.041,2.328,0.114
		c-0.156,0.469-0.314,0.936-0.469,1.407c-0.084,0.258,0.148,0.468,0.376,0.486c0.121,0.42,0.707,0.752,1.172,0.379
		c0.441-0.354,0.862-0.729,1.277-1.11c1.137,0.016,2.277,0.03,3.415,0.017C42.165,44.486,41.511,45.031,40.828,45.541z
		 M42.98,43.729c-1.142-0.018-2.287-0.004-3.429,0.013c0.925-0.865,1.78-1.797,2.564-2.782c1.208,0.107,2.428,0.021,3.58-0.382
		c0.1-0.035,0.061-0.188-0.044-0.161c-1.141,0.294-2.261,0.444-3.42,0.387c0.506-0.646,0.97-1.32,1.411-2.008
		c0.755-0.091,2.28-0.037,3.368,0.009C45.889,40.622,44.529,42.273,42.98,43.729z M47.081,38.676
		c-0.759-0.005-1.518-0.012-2.277-0.008c-0.293,0.001-0.688-0.057-1.053-0.044c0.654-1.039,1.224-2.125,1.72-3.24
		c1.077,0.161,2.183,0.192,3.258,0.01C48.263,36.537,47.714,37.635,47.081,38.676z M48.838,35.14
		c-1.099,0.138-2.165,0.182-3.275,0.039c0.486-1.119,0.885-2.27,1.199-3.441c1.01,0.178,2.055,0.285,3.066,0.221
		C49.572,33.054,49.241,34.117,48.838,35.14z M50.37,28.435c-0.088,1.165-0.262,2.298-0.513,3.398
		c-1.027-0.074-2.036-0.143-3.052-0.269c0.259-0.996,0.437-2.009,0.563-3.028c0.915,0.072,1.864,0.063,2.751-0.143
		c0.087-0.02,0.07-0.163-0.021-0.157c-0.911,0.056-1.797,0.12-2.702,0.096c0.072-0.63,0.108-1.263,0.127-1.897
		c0.968,0.073,1.937,0.146,2.907,0.182C50.431,27.22,50.416,27.826,50.37,28.435z M47.527,26.219c0.015-0.75-0.009-1.501-0.07-2.251
		c0.938-0.101,1.865-0.104,2.805-0.072c0.095,0.827,0.159,1.66,0.168,2.5C49.465,26.312,48.495,26.265,47.527,26.219z"/>
	<path style="fill:#1D1D1B;" d="M34.018,48.934c-2.702,0.538-5.25,0.778-7.997,0.508c-0.059-0.006-0.073,0.094-0.014,0.104
		c2.649,0.415,5.477,0.328,8.049-0.473C34.144,49.045,34.108,48.917,34.018,48.934z"/>
	<path style="fill:#1D1D1B;" d="M45.234,12.968c-2.67-0.037-5.342,0.009-8.012,0.025c-0.056,0-0.056,0.086,0,0.087
		c2.67,0.016,5.342,0.062,8.012,0.025C45.322,13.104,45.322,12.97,45.234,12.968z"/>
</g>
<g>
</g>
<g>
</g>
<g>
</g>
<g>
</g>
<g>
</g>
<g>
</g>
<g>
</g>
<g>
</g>
<g>
</g>
<g>
</g>
<g>
</g>
<g>
</g>
<g>
</g>
<g>
</g>
<g>
</g>
</svg>
