<svg xmlns="http://www.w3.org/2000/svg" width="32" height="48" viewBox="0 0 32 48"><g><g><path fill="#fff" d="M31.999 14.811v18.255c0 8.232-7.178 14.93-16.002 14.93-8.821 0-15.999-6.698-15.999-14.93V14.811c0-7.75 6.42-14.2 14.672-14.817h2.654C25.58.617 31.998 7.068 32 14.811zm-3 .292C29 8.42 23.166 2.985 15.996 2.985c-7.168 0-13 5.435-13 12.118v17.765c0 6.685 5.832 12.12 13 12.12 7.17 0 13.003-5.435 13.003-12.12zm-11.005-.132v5.066c0 1.085-.895 1.966-1.997 1.966-1.101 0-1.995-.881-1.995-1.966V14.97c0-1.087.894-1.967 1.995-1.967 1.103 0 1.997.88 1.997 1.967z"/></g></g></svg>