<svg width="20" height="18" viewBox="0 0 20 18" fill="none" xmlns="http://www.w3.org/2000/svg">
<path d="M2 2H4.05128L6.92308 10.8H15.9487L18 4.4H4.87179" stroke="white" stroke-width="3" stroke-linecap="round" stroke-linejoin="round"/>
<path d="M8.97438 17C9.95581 17 10.7949 16.2179 10.7949 15.2C10.7949 14.1822 9.95581 13.4 8.97438 13.4C7.99296 13.4 7.15387 14.1822 7.15387 15.2C7.15387 16.2179 7.99296 17 8.97438 17Z" fill="white" fill-opacity="0.01" stroke="white" stroke-width="2"/>
<path d="M13.8974 17C14.8788 17 15.7179 16.2179 15.7179 15.2C15.7179 14.1822 14.8788 13.4 13.8974 13.4C12.916 13.4 12.0769 14.1822 12.0769 15.2C12.0769 16.2179 12.916 17 13.8974 17Z" fill="white" fill-opacity="0.01" stroke="white" stroke-width="2"/>
</svg>
