<svg width="7" height="14" viewBox="0 0 7 14" fill="none" xmlns="http://www.w3.org/2000/svg">
<path d="M6.6 1.41958C6.6 1.16783 6.435 1 6.1875 1H2.0625H0.4125C0.165 1 0 1.16783 0 1.41958C0 1.67133 0.165 1.83916 0.4125 1.83916H2.0625C3.25875 1.83916 4.24875 2.76224 4.49625 3.93706H0.4125C0.165 3.93706 0 4.1049 0 4.35664C0 4.60839 0.165 4.77622 0.4125 4.77622H4.49625C4.33125 5.99301 3.3 6.87413 2.0625 6.87413H0V8.04895L4.82625 12.8741C4.99125 13.042 5.23875 13.042 5.40375 12.8741C5.56875 12.7063 5.56875 12.4545 5.40375 12.2867L0.825 7.71329H2.0625C3.75375 7.71329 5.15625 6.41259 5.32125 4.77622H6.1875C6.435 4.77622 6.6 4.60839 6.6 4.35664C6.6 4.1049 6.435 3.93706 6.1875 3.93706H5.32125C5.1975 3.0979 4.785 2.38462 4.2075 1.83916H6.1875C6.435 1.83916 6.6 1.67133 6.6 1.41958Z" fill="#B3B3B3" stroke="#B3B3B3" stroke-width="0.8"/>
</svg>
