<svg width="105" height="60" viewBox="0 0 105 60" fill="none" xmlns="http://www.w3.org/2000/svg">
<path fill-rule="evenodd" clip-rule="evenodd" d="M35.9394 19.0655L53.006 44.883C54.2602 46.5732 56.647 46.9266 58.3372 45.6724C60.0275 44.4182 60.3809 42.0314 59.1267 40.3412L42.0602 14.5238C40.8061 12.8336 38.4192 12.4801 36.729 13.7343C35.0387 14.9885 34.6853 17.3753 35.9394 19.0655Z" fill="#005CB2"/>
<path fill-rule="evenodd" clip-rule="evenodd" d="M47.6767 19.0655L64.7432 44.883C65.9973 46.5732 68.3842 46.9267 70.0744 45.6724C71.7647 44.4182 72.1182 42.0314 70.864 40.3412L53.7974 14.5238C52.5432 12.8336 50.1564 12.4801 48.4662 13.7343C46.7759 14.9885 46.4225 17.3753 47.6767 19.0655Z" fill="#005CB2"/>
<path fill-rule="evenodd" clip-rule="evenodd" d="M59.4139 19.0655L76.4804 44.883C77.7345 46.5732 80.1214 46.9267 81.8116 45.6724C83.5019 44.4183 83.8553 42.0314 82.6012 40.3412L65.5347 14.5238C64.2805 12.8336 61.8936 12.4801 60.2034 13.7343C58.5132 14.9884 58.1597 17.3753 59.4139 19.0655Z" fill="#005CB2"/>
<path fill-rule="evenodd" clip-rule="evenodd" d="M71.1511 19.0655L88.2176 44.883C89.4718 46.5732 91.8587 46.9267 93.5488 45.6724C95.2392 44.4182 95.5926 42.0314 94.3384 40.3412L77.2719 14.5238C76.0177 12.8336 73.6309 12.4801 71.9406 13.7343C70.2504 14.9885 69.8969 17.3753 71.1511 19.0655Z" fill="#005CB2"/>
<path fill-rule="evenodd" clip-rule="evenodd" d="M82.566 19.0655L93.4302 35.6663C94.6844 37.3565 97.0712 37.71 98.7614 36.4557C100.452 35.2016 100.805 32.8147 99.551 31.1246L88.6868 14.5238C87.4326 12.8336 85.0457 12.4801 83.3555 13.7343C81.6653 14.9885 81.3118 17.3753 82.566 19.0655Z" fill="#005CB2"/>
<mask id="mask0" mask-type="alpha" maskUnits="userSpaceOnUse" x="92" y="12" width="13" height="15">
<path fill-rule="evenodd" clip-rule="evenodd" d="M92.9986 12.7756H104.75V26.3164H92.9986V12.7756Z" fill="white"/>
</mask>
<g mask="url(#mask0)">
<path fill-rule="evenodd" clip-rule="evenodd" d="M93.7493 18.8576L97.8784 24.7762C99.1326 26.4664 101.519 26.8198 103.21 25.5656C104.9 24.3115 105.253 21.9246 103.999 20.2344L99.8701 14.3159C98.6159 12.6257 96.2291 12.2722 94.5388 13.5264C92.8486 14.7806 92.4951 17.1674 93.7493 18.8576Z" fill="#005CB2"/>
</g>
<mask id="mask1" mask-type="alpha" maskUnits="userSpaceOnUse" x="0" y="0" width="37" height="13">
<path fill-rule="evenodd" clip-rule="evenodd" d="M7.62939e-06 0.041748H36.7762V12.9836H7.62939e-06V0.041748Z" fill="white"/>
</mask>
<g mask="url(#mask1)">
<path fill-rule="evenodd" clip-rule="evenodd" d="M35.8333 6.66321L31.28 1.34321C30.4889 0.439048 29.3649 -0.000494607 28.2512 0.0458256C28.1931 0.0431644 28.1346 0.041626 28.0758 0.041626H3.81086C1.70616 0.041626 7.62939e-06 1.74782 7.62939e-06 3.85252C7.62939e-06 5.95722 1.70616 7.66337 3.81086 7.66337H26.6577L30.0972 11.682C31.483 13.2659 33.8906 13.4265 35.4746 12.0406C37.0586 10.6547 37.2192 8.2472 35.8333 6.66321Z" fill="#231F20"/>
</g>
<path fill-rule="evenodd" clip-rule="evenodd" d="M70.305 53.8871C70.305 57.2551 67.5747 59.9855 64.2066 59.9855C60.8386 59.9855 58.1082 57.2551 58.1082 53.8871C58.1082 50.519 60.8386 47.7887 64.2066 47.7887C67.5747 47.7887 70.305 50.519 70.305 53.8871Z" fill="#231F20"/>
<path fill-rule="evenodd" clip-rule="evenodd" d="M91.3257 53.8871C91.3257 57.2551 88.5954 59.9855 85.2273 59.9855C81.8593 59.9855 79.1289 57.2551 79.1289 53.8871C79.1289 50.519 81.8593 47.7887 85.2273 47.7887C88.5954 47.7887 91.3257 50.519 91.3257 53.8871Z" fill="#231F20"/>
</svg>
