<svg width="15" height="15" viewBox="0 0 15 15" fill="none" xmlns="http://www.w3.org/2000/svg">
<path fill-rule="evenodd" clip-rule="evenodd" d="M11 15C9.08565 14.9234 6.27635 12.596 4 11C2.40121 8.71771 0.076772 5.90648 0 4C-0.0254266 2.71794 2.01808 1.2222 2 1C2.49407 0.890174 3.10633 0.950415 3 1C3.52026 1.52153 5.08077 3.89099 5 4C5.42143 4.42709 5.39437 4.82682 5 5C5.05697 5.46705 4.63931 6.20208 4 7C4.65051 6.80028 5.18997 7.52083 6 9C7.4794 9.81231 8.19433 10.3484 8 11C8.79025 10.3577 9.52478 9.93793 10 10C10.152 9.60777 10.5584 9.57695 11 10C11.1072 9.91224 13.4695 11.485 14 12C13.8633 11.7601 13.9744 11.9702 14 12C14.0182 12.4643 13.9417 12.7291 14 13C13.7649 12.9789 12.2902 15 11 15Z" fill="white"/>
</svg>
