<svg width="12" height="20" viewBox="0 0 12 20" fill="none" xmlns="http://www.w3.org/2000/svg">
<path d="M11 1.62937C11 1.25175 10.75 1 10.375 1H4.125H1.625C1.25 1 1 1.25175 1 1.62937C1 2.00699 1.25 2.25874 1.625 2.25874H4.125C5.9375 2.25874 7.4375 3.64336 7.8125 5.40559H1.625C1.25 5.40559 1 5.65734 1 6.03497C1 6.41259 1.25 6.66434 1.625 6.66434H7.8125C7.5625 8.48951 6 9.81119 4.125 9.81119H1V11.5734L8.3125 18.8112C8.5625 19.0629 8.9375 19.0629 9.1875 18.8112C9.4375 18.5594 9.4375 18.1818 9.1875 17.9301L2.25 11.0699H4.125C6.6875 11.0699 8.8125 9.11888 9.0625 6.66434H10.375C10.75 6.66434 11 6.41259 11 6.03497C11 5.65734 10.75 5.40559 10.375 5.40559H9.0625C8.875 4.14685 8.25 3.07692 7.375 2.25874H10.375C10.75 2.25874 11 2.00699 11 1.62937Z" fill="#42A5F4" stroke="#42A5F4" stroke-width="1.5"/>
</svg>
