<svg xmlns="http://www.w3.org/2000/svg" width="1197" height="268" viewBox="0 0 1197 268"><g><g><g><path fill="#a4eecb" d="M114.17 81.17l8.66-5 5 8.66-8.66 5z"/></g><g><path fill="#a4eecb" d="M400.876 194.464l9.66-2.588 2.588 9.66-9.66 2.587z"/></g><g><path fill="#a4eecb" d="M939.15 69.175l8.675 4.975-4.975 8.675-8.675-4.976z"/></g><g><path fill="#a4eecb" d="M700.17 262.83l5-8.66 8.66 5-5 8.66z"/></g><g><path fill="#a4eecb" d="M228.8 139.262l16.937 4.538-4.538 16.937-16.937-4.538z"/></g><g><path fill="#a4eecb" d="M515.78 7.03L527.47.28l6.749 11.69-11.69 6.749z"/></g><g><path fill="#a4eecb" d="M1046.209 182.024l8.767 15.185-15.185 8.767-8.767-15.185z"/></g><g opacity=".5"><path fill="#a4eecb" d="M1197.01 70.558l-21.568 12.452-12.453-21.568 21.569-12.453z"/></g><g opacity=".5"><path fill="#a4eecb" d="M34.01 206.442L21.558 228.01-.01 215.558l12.452-21.569z"/></g></g></g></svg>