<svg width="16" height="12" fill="none" xmlns="http://www.w3.org/2000/svg"><path d="M14.5 0h-13A1.5 1.5 0 000 1.5v9c0 .844.656 1.5 1.5 1.5h13a1.5 1.5 0 001.5-1.5v-9c0-.813-.688-1.5-1.5-1.5zm0 1.5v1.281c-.719.594-1.844 1.469-4.219 3.344C9.75 6.531 8.72 7.531 8 7.5c-.75.031-1.781-.969-2.313-1.375-2.375-1.875-3.5-2.75-4.187-3.344V1.5h13zm-13 9V4.719c.688.562 1.719 1.375 3.25 2.593C5.438 7.845 6.656 9.033 8 9c1.313.031 2.5-1.156 3.219-1.688A510.233 510.233 0 0114.5 4.72v5.78h-13z" fill="#363838"/></svg>