<svg width="14" height="15" fill="none" xmlns="http://www.w3.org/2000/svg"><path d="M7 3.406C5 3.406 3.406 5.031 3.406 7 3.406 9 5 10.594 7 10.594A3.594 3.594 0 0010.594 7c0-1.969-1.625-3.594-3.594-3.594zm0 5.938A2.34 2.34 0 014.656 7c0-1.281 1.032-2.313 2.344-2.313A2.307 2.307 0 019.313 7C9.313 8.313 8.28 9.344 7 9.344zm4.563-6.063a.84.84 0 00-.844-.844.84.84 0 00-.844.844.84.84 0 00.844.844.84.84 0 00.844-.844zm2.374.844C13.876 3 13.626 2 12.813 1.187 12 .375 11 .125 9.874.063 8.719 0 5.25 0 4.094.063 2.969.126 2 .376 1.156 1.188.344 2 .094 3 .031 4.126c-.061 1.155-.061 4.624 0 5.78.063 1.125.313 2.094 1.125 2.938.844.812 1.813 1.062 2.938 1.125 1.156.062 4.625.062 5.781 0 1.125-.063 2.125-.313 2.938-1.125.812-.844 1.062-1.813 1.124-2.938.063-1.156.063-4.625 0-5.781zm-1.5 7c-.218.625-.718 1.094-1.312 1.344-.938.375-3.125.281-4.125.281-1.031 0-3.219.094-4.125-.281a2.37 2.37 0 01-1.344-1.344C1.156 10.219 1.25 8.031 1.25 7c0-1-.094-3.188.281-4.125a2.41 2.41 0 011.344-1.313c.906-.375 3.094-.28 4.125-.28 1 0 3.188-.095 4.125.28.594.22 1.063.72 1.313 1.313.374.938.28 3.125.28 4.125 0 1.031.095 3.219-.28 4.125z" fill="#707070"/></svg>