<svg width="38" height="34" fill="none" xmlns="http://www.w3.org/2000/svg"><path fill-rule="evenodd" clip-rule="evenodd" d="M35.742 9.63h.588c.92 0 1.67.838 1.67 1.867V23.04c0 1.715-1.248 3.11-2.783 3.11h-1.734v6.102c0 .964-.701 1.748-1.564 1.748-.816 0-1.502-.713-1.56-1.624l-.395-6.225H13.805c-.307 0-.556-.28-.556-.623 0-.343.249-.622.556-.622h21.412c.92 0 1.67-.837 1.67-1.867V11.497c0-.343-.25-.622-.557-.622h-2.29c-.269 0-.493.213-.545.497a.686.686 0 00-.012.125v2.98h.897c.748 0 1.356.68 1.356 1.516v3.592c0 .837-.608 1.517-1.356 1.517H3.62c-.748 0-1.356-.68-1.356-1.517v-3.592c0-.836.608-1.517 1.356-1.517h.897v-2.98a.694.694 0 00-.012-.124c-.052-.284-.276-.497-.545-.497H1.67c-.307 0-.557.279-.557.622v11.542c0 1.03.75 1.867 1.67 1.867h8.425c.307 0 .556.279.556.622 0 .344-.249.623-.556.623H8.036l-.396 6.225C7.582 33.286 6.897 34 6.08 34c-.862 0-1.563-.784-1.563-1.748v-6.101H2.783C1.25 26.15 0 24.755 0 23.04V11.497c0-1.03.75-1.867 1.67-1.867h.588V2.862C2.258 1.284 3.408 0 4.82 0h12.177c.811 0 1.535.424 2.004 1.084C19.47.424 20.193 0 21.004 0H33.18c1.25 0 2.311.998 2.523 2.373.053.339-.15.66-.454.72-.303.057-.59-.17-.643-.508-.12-.777-.72-1.34-1.426-1.34H21.004c-.798 0-1.447.725-1.447 1.617v11.639l.01-.002.015-.004c.095-.022.195-.022 5.143-.02h.004l7.64.001v-2.98c0-1.028.75-1.866 1.67-1.866h.59V5.38c0-.343.248-.622.556-.622.307 0 .557.279.557.623v4.25zM6.675 32.286l.335-6.164H5.903v6.128c0 .28.173.506.386.506.202 0 .372-.206.386-.47zM34.68 19.63c0 .15-.11.272-.245.272H19.553V16.03c0-.15.11-.273.245-.273h14.637c.135 0 .245.122.245.273v3.6zM3.32 9.637h.591c.924 0 1.676.838 1.676 1.869v2.982l7.69-.002h.004c4.975-.001 5.06-.001 5.139.02l.027.006V2.863c0-.893-.652-1.62-1.453-1.62H4.773c-.801 0-1.453.727-1.453 1.62v6.774zm0 9.993v-3.601c0-.15.11-.273.245-.273h14.637c.135 0 .245.122.245.273v3.873H3.565c-.135 0-.245-.122-.245-.272zm28.39 13.126c.214 0 .387-.227.387-.506v-6.128H30.99l.335 6.164c.015.264.184.47.386.47z" fill="#000"/></svg>