<svg xmlns="http://www.w3.org/2000/svg" width="15.97" height="16" viewBox="0 0 15.97 16">
  <metadata><?xpacket begin="﻿" id="W5M0MpCehiHzreSzNTczkc9d"?>
<x:xmpmeta xmlns:x="adobe:ns:meta/" x:xmptk="Adobe XMP Core 5.6-c142 79.160924, 2017/07/13-01:06:39        ">
   <rdf:RDF xmlns:rdf="http://www.w3.org/1999/02/22-rdf-syntax-ns#">
      <rdf:Description rdf:about=""/>
   </rdf:RDF>
</x:xmpmeta>
                                                                                                    
                                                                                                    
                                                                                                    
                                                                                                    
                                                                                                    
                                                                                                    
                                                                                                    
                                                                                                    
                                                                                                    
                                                                                                    
                                                                                                    
                                                                                                    
                                                                                                    
                                                                                                    
                                                                                                    
                                                                                                    
                                                                                                    
                                                                                                    
                                                                                                    
                                                                                                    
                           
<?xpacket end="w"?></metadata>
<defs>
    <style>
      .cls-1 {
        fill: #fff;
        fill-rule: evenodd;
      }
    </style>
  </defs>
  <path id="inst" class="cls-1" d="M1105.4,5144.01h-12.81a1.42,1.42,0,0,0-1.59,1.54v12.83a1.424,1.424,0,0,0,1.53,1.61h12.9a1.313,1.313,0,0,0,1.53-1.45v-12.92A1.445,1.445,0,0,0,1105.4,5144.01Zm-1.89,5.98s-1.07.05-1.44,0.04l2.9,0.01,0.03,8-12-.07,0.02-7.96,2.1,0.01c-0.4-.02.85,0,0.85,0m8.7-2.12a0.691,0.691,0,0,1-.69.69h-0.89a0.691,0.691,0,0,1-.69-0.69v-0.91a0.691,0.691,0,0,1,.69-0.69h0.89a0.691,0.691,0,0,1,.69.69v0.91Zm-5.69-1.58a4.55,4.55,0,1,1-4.56,4.55A4.556,4.556,0,0,1,1098.98,5146.32Zm0.01,2.71a2.005,2.005,0,1,1-2,2A2,2,0,0,1,1098.99,5149.03Z" transform="translate(-1091 -5144)"/>
</svg>
