<svg xmlns="http://www.w3.org/2000/svg" width="17" height="14" viewBox="0 0 17 14">
  <metadata><?xpacket begin="﻿" id="W5M0MpCehiHzreSzNTczkc9d"?>
<x:xmpmeta xmlns:x="adobe:ns:meta/" x:xmptk="Adobe XMP Core 5.6-c142 79.160924, 2017/07/13-01:06:39        ">
   <rdf:RDF xmlns:rdf="http://www.w3.org/1999/02/22-rdf-syntax-ns#">
      <rdf:Description rdf:about=""/>
   </rdf:RDF>
</x:xmpmeta>
                                                                                                    
                                                                                                    
                                                                                                    
                                                                                                    
                                                                                                    
                                                                                                    
                                                                                                    
                                                                                                    
                                                                                                    
                                                                                                    
                                                                                                    
                                                                                                    
                                                                                                    
                                                                                                    
                                                                                                    
                                                                                                    
                                                                                                    
                                                                                                    
                                                                                                    
                                                                                                    
                           
<?xpacket end="w"?></metadata>
<defs>
    <style>
      .cls-1 {
        fill: #fff;
        fill-rule: evenodd;
      }
    </style>
  </defs>
  <path id="twitter" class="cls-1" d="M868,5146.65a6.781,6.781,0,0,1-2,.56,3.554,3.554,0,0,0,1.533-1.95,7.069,7.069,0,0,1-2.214.85,3.484,3.484,0,0,0-6.034,2.42,3.649,3.649,0,0,0,.09.81,9.869,9.869,0,0,1-7.189-3.7,3.571,3.571,0,0,0,1.08,4.72,3.516,3.516,0,0,1-1.58-.44c0,0.01,0,.03,0,0.04a3.529,3.529,0,0,0,2.8,3.47,3.488,3.488,0,0,1-.919.12,3.544,3.544,0,0,1-.657-0.06,3.5,3.5,0,0,0,3.258,2.45,6.933,6.933,0,0,1-4.331,1.52,1.1,1.1,0,0,1-.832-0.05,9.791,9.791,0,0,0,5.346,1.58,9.922,9.922,0,0,0,9.923-10.05c0-.15,0-0.31-0.01-0.46A7.15,7.15,0,0,0,868,5146.65Z" transform="translate(-851 -5145)"/>
</svg>
