<svg xmlns="http://www.w3.org/2000/svg" viewBox="0 0 32 32"><defs><style>.cls-1{fill:#231f20;}</style></defs><title>24-hours</title><g id="Layer_2" data-name="Layer 2"><path class="cls-1" d="M26.36,9.79l-3.21,2.38A9.16,9.16,0,1,1,16,8.66h0v2.06c0,.55.37.75.83.45l6.38-4.25a.62.62,0,0,0,0-1.11L16.79,1.55c-.46-.31-.83-.1-.83.45V4.66h0A13.22,13.22,0,1,0,26.36,9.79ZM12,18.29c-.58.52-1.2,1-1.8,1.49-1.46,1.21-1.09,2.34.47,2.41h3.94c1.44-.07,1.42-1.86-.07-1.86l-2.16,0c.27-.21.56-.42.83-.64,1.23-1,2.32-2.13,2.32-3.59a2.8,2.8,0,0,0-3.05-2.75c-3.1,0-3.91,3.67-2.08,3.67,1.39,0,.69-1.74,2-1.74a.85.85,0,0,1,.88.9A3,3,0,0,1,12,18.29ZM19.55,22a1.06,1.06,0,0,0,1.61-.14,1.36,1.36,0,0,0,.21-.83v-.55a1.77,1.77,0,0,0,.76-.1.78.78,0,0,0,.48-.74.81.81,0,0,0-.51-.77,1.93,1.93,0,0,0-.72-.09V14.7a1.19,1.19,0,0,0-1.27-1.3A1.24,1.24,0,0,0,19,14l-2.83,3.91c-.72,1-.75,2.58.6,2.58h2.47V21A1.22,1.22,0,0,0,19.55,22Zm-1.91-3.21L19.43,16c0,.45-.06.89-.09,1.34s0,.94-.05,1.42Z"/></g></svg>