<svg id="Layer_2" data-name="Layer 2" xmlns="http://www.w3.org/2000/svg" viewBox="0 0 32 32"><defs><style>.cls-1{fill:#231f20;}</style></defs><title>code-alt</title><path class="cls-1" d="M9.63,13.76A2.4,2.4,0,1,0,7.17,9.64a18.24,18.24,0,0,0-5.62,5.62,2.4,2.4,0,0,0,0,2.47,18.24,18.24,0,0,0,5.62,5.62,2.4,2.4,0,1,0,2.47-4.12,14.12,14.12,0,0,1-3.08-2.73A12.4,12.4,0,0,1,9.63,13.76Zm20.82,1.51a18.24,18.24,0,0,0-5.62-5.62,2.4,2.4,0,1,0-2.47,4.12,14.12,14.12,0,0,1,3.08,2.73,12.4,12.4,0,0,1-3.08,2.76,2.4,2.4,0,1,0,2.47,4.12,18.24,18.24,0,0,0,5.62-5.62A2.4,2.4,0,0,0,30.46,15.26ZM16.55,5l-5,21a2,2,0,0,0,3.89.93l5-21A2,2,0,0,0,16.55,5Z"/></svg>