<svg xmlns="http://www.w3.org/2000/svg" viewBox="0 0 32 32"><defs><style>.cls-1{fill:#231f20;}</style></defs><title>presentation-chart</title><g id="Layer_2" data-name="Layer 2"><path class="cls-1" d="M21.47,28.32l-4-2.21s0-.07,0-.11V25h-3v1s0,.07,0,.11l-4,2.21A1.5,1.5,0,0,0,12,30.94l4-2.23,4,2.23a1.5,1.5,0,0,0,1.46-2.62ZM3,21a2,2,0,0,0,2,2H27a2,2,0,0,0,2-2V7H3Zm4.94-6.06,3-3a1.5,1.5,0,0,1,2.12,0L17,15.88l4.94-4.94a1.5,1.5,0,0,1,2.12,2.12l-6,6a1.5,1.5,0,0,1-2.12,0L12,15.12l-1.94,1.94a1.5,1.5,0,1,1-2.12-2.12ZM30.72,1.74A1.36,1.36,0,0,0,29.51,1h-27a1.36,1.36,0,0,0-1.21.74,3,3,0,0,0,0,2.52A1.36,1.36,0,0,0,2.49,5h27a1.36,1.36,0,0,0,1.21-.74A3,3,0,0,0,30.72,1.74Z"/></g></svg>