<svg width="50" height="50" xmlns="http://www.w3.org/2000/svg" class="fb-svg"><path id="fb-0" d="m0.42638,25.000001c0,-13.747899 10.997034,-24.883697 24.57362,-24.883697c13.576585,0 24.57362,11.135798 24.57362,24.883697c0,13.747899 -10.997034,24.883697 -24.57362,24.883697c-13.576585,0 -24.57362,-11.135798 -24.57362,-24.883697z" stroke-opacity="null" stroke-linecap="null" stroke-linejoin="null" stroke-width="null" stroke="null" fill="#3b5998"/><path stroke="null" id="fb-1" d="m30.437219,26.699623l0.648962,-4.921472l-4.057606,0l0,-3.193698c0,-1.34642 0.566814,-2.658848 2.384089,-2.658848l1.844656,0l0,-4.190102s-1.673973,-0.332489 -3.274471,-0.332489c-3.341557,0 -5.525755,2.357165 -5.525755,6.624282l0,3.750855l-3.714413,0l0,4.921472l3.714413,0l0,11.897362l4.571481,0l0,-11.897362l3.408644,0z" fill="#ffffff"/></svg>