<svg width="30" height="28" xmlns="http://www.w3.org/2000/svg" class="svg-inline--fa fa-github fa-w-16">

 <g>
  <title>background</title>
  <rect fill="none" id="canvas_background" height="30" width="32" y="-1" x="-1"/>
 </g>
 <g>
  <title>Layer 1</title>
  <path stroke="null" id="svg_1" d="m10.028747,22.603431c0,0.114287 -0.137756,0.205716 -0.311449,0.205716c-0.19765,0.017143 -0.335407,-0.074286 -0.335407,-0.205716c0,-0.114287 0.137756,-0.205716 0.311449,-0.205716c0.179682,-0.017143 0.335407,0.074286 0.335407,0.205716zm-1.862706,-0.257145c-0.041926,0.114287 0.077862,0.245716 0.257545,0.280002c0.155725,0.057143 0.335407,0 0.371343,-0.114287s-0.077862,-0.245716 -0.257545,-0.297145c-0.155725,-0.04 -0.329417,0.017143 -0.371343,0.13143zm2.647319,-0.097144c-0.173693,0.04 -0.293481,0.148573 -0.275513,0.280002c0.017968,0.114287 0.173693,0.188573 0.353375,0.148573c0.173693,-0.04 0.293481,-0.148573 0.275513,-0.262859c-0.017968,-0.108572 -0.179682,-0.182859 -0.353375,-0.165716zm3.941031,-21.897315c-8.30731,0 -14.662073,6.01719 -14.662073,13.942967c0,6.337193 4.180607,11.760092 10.152048,13.668679c0.766644,0.13143 1.036168,-0.320003 1.036168,-0.691434c0,-0.354288 -0.017968,-2.30859 -0.017968,-3.508599c0,0 -4.192586,0.85715 -5.073029,-1.702871c0,0 -0.682793,-1.66287 -1.665056,-2.091445c0,0 -1.371575,-0.89715 0.095831,-0.880007c0,0 1.491363,0.114287 2.311912,1.474297c1.311681,2.205732 3.509794,1.571441 4.366279,1.194295c0.137756,-0.914293 0.527068,-1.548584 0.958305,-1.925729c-3.34808,-0.354288 -6.726106,-0.817149 -6.726106,-6.314335c0,-1.571441 0.455195,-2.360019 1.4135,-3.365741c-0.155725,-0.371431 -0.664824,-1.902872 0.155725,-3.88003c1.251786,-0.371431 4.132692,1.542869 4.132692,1.542869c1.197882,-0.320003 2.485605,-0.485718 3.761349,-0.485718s2.563467,0.165716 3.761349,0.485718c0,0 2.880906,-1.920015 4.132692,-1.542869c0.820549,1.982873 0.311449,3.508599 0.155725,3.88003c0.958305,1.011437 1.545267,1.800014 1.545267,3.365741c0,5.514329 -3.527762,5.954332 -6.875841,6.314335c0.551026,0.451432 1.0182,1.308582 1.0182,2.651449c0,1.925729 -0.017968,4.308605 -0.017968,4.77718c0,0.371431 0.275513,0.822864 1.036168,0.691434c5.989409,-1.897158 10.050228,-7.320058 10.050228,-13.65725c0,-7.925777 -6.738085,-13.942967 -15.045395,-13.942967zm-12.781399,41.606041c-0.077862,0.057143 -0.059894,0.188573 0.041926,0.297145c0.095831,0.091429 0.233587,0.13143 0.311449,0.057143c0.077862,-0.057143 0.059894,-0.188573 -0.041926,-0.297145c-0.095831,-0.091429 -0.233587,-0.13143 -0.311449,-0.057143zm8.193511,-20.171587c-0.041926,0.074286 0.017968,0.165716 0.137756,0.222859c0.095831,0.057143 0.215619,0.04 0.257545,-0.04c0.041926,-0.074286 -0.017968,-0.165716 -0.137756,-0.222859c-0.119788,-0.034286 -0.215619,-0.017143 -0.257545,0.04zm1.940568,2.034302c-0.095831,0.074286 -0.059894,0.245716 0.077862,0.354288c0.137756,0.13143 0.311449,0.148573 0.389312,0.057143c0.077862,-0.074286 0.041926,-0.245716 -0.077862,-0.354288c-0.131767,-0.13143 -0.311449,-0.148573 -0.389312,-0.057143zm-0.682793,-0.840007c-0.095831,0.057143 -0.095831,0.205716 0,0.337146c0.095831,0.13143 0.257545,0.188573 0.335407,0.13143c0.095831,-0.074286 0.095831,-0.222859 0,-0.354288c-0.083852,-0.13143 -0.239576,-0.188573 -0.335407,-0.114287z" fill="currentColor"/>
 </g>
</svg>