<svg width="40" height="40" xmlns="http://www.w3.org/2000/svg"><path fill="#70ccbd" viewBox="0 0 40 40" stroke="null" d="m19.999645,0.061113c-10.986869,0 -19.926552,8.944656 -19.926552,19.938886c0,10.993756 8.939564,19.938886 19.926552,19.938886c10.988288,0 19.927261,-8.94513 19.927261,-19.938886c0,-10.994229 -8.938973,-19.938886 -19.927261,-19.938886zm12.162636,26.538215c-0.284601,0.28416 -0.657526,0.42766 -1.030215,0.42766c-0.373398,0 -0.746205,-0.1435 -1.030924,-0.42766l-10.101497,-10.10614l-10.100433,10.10614c-0.569438,0.569622 -1.493475,0.569622 -2.062913,0c-0.569793,-0.569622 -0.569793,-1.493201 0,-2.062941l11.132421,-11.137019c0.570148,-0.569622 1.491346,-0.569622 2.06043,0l11.132421,11.137019c0.570148,0.56974 0.570148,1.49332 0.000709,2.062941z"/></svg>