<svg width="50" height="50" xmlns="http://www.w3.org/2000/svg" class="github-svg">

 <g>
  <title>background</title>
  <rect fill="none" id="canvas_background" height="52" width="52" y="-1" x="-1"/>
 </g>
 <g>
  <title>Layer 1</title>
  <path stroke="null" id="svg_1" d="m24.433361,1.011653c-13.492201,0 -23.8132,10.255253 -23.8132,23.763359c0,10.800641 6.789875,20.04303 16.488307,23.295883c1.245135,0.223999 1.682877,-0.545389 1.682877,-1.178429c0,-0.603823 -0.029183,-3.934589 -0.029183,-5.979796c0,0 -6.80933,1.460862 -8.239289,-2.902246c0,0 -1.108948,-2.834073 -2.704277,-3.564504c0,0 -2.227624,-1.529036 0.155642,-1.499819c0,0 2.422176,0.194782 3.754859,2.512683c2.130348,3.759285 5.700382,2.678247 7.091431,2.035468c0.223735,-1.558253 0.85603,-2.639291 1.556418,-3.28207c-5.437737,-0.603823 -10.924111,-1.392689 -10.924111,-10.761685c0,-2.678247 0.739299,-4.022241 2.295717,-5.736319c-0.252918,-0.63304 -1.079765,-3.243114 0.252918,-6.612836c2.033071,-0.63304 6.712054,2.629552 6.712054,2.629552c1.945523,-0.545389 4.03696,-0.827822 6.108942,-0.827822s4.163419,0.282433 6.108942,0.827822c0,0 4.678983,-3.272331 6.712054,-2.629552c1.332683,3.379461 0.505836,5.979796 0.252918,6.612836c1.556418,1.723817 2.509725,3.067811 2.509725,5.736319c0,9.398214 -5.729565,10.148123 -11.167301,10.761685c0.894941,0.769387 1.653694,2.23025 1.653694,4.518934c0,3.28207 -0.029183,7.343267 -0.029183,8.141872c0,0.63304 0.44747,1.402428 1.682877,1.178429c9.727615,-3.233375 16.322937,-12.475763 16.322937,-23.276405c0,-13.508106 -10.943566,-23.763359 -24.435768,-23.763359zm-20.758729,70.910252c-0.126459,0.097391 -0.097276,0.32139 0.068093,0.506432c0.155642,0.155825 0.379377,0.223999 0.505836,0.097391c0.126459,-0.097391 0.097276,-0.32139 -0.068093,-0.506432c-0.155642,-0.155825 -0.379377,-0.223999 -0.505836,-0.097391z" fill="#ffffff"/>
 </g>
</svg>