<svg width="40" height="40" xmlns="http://www.w3.org/2000/svg"><path stroke="null" id="svg_1" d="m34.613313,11.354056l-4.486417,3.183846a12.80236,12.253793 0 1 1 -9.993109,-4.695504l0,0l0,2.755766c0,0.735763 0.517126,1.003313 1.160039,0.601988l8.916928,-5.685439a0.866535,0.829405 0 0 0 0,-1.484903l-8.972833,-5.698816c-0.642913,-0.414703 -1.160039,-0.133775 -1.160039,0.601988l0,3.558416l0,0a18.476769,17.685059 0 1 0 14.535431,6.862659zm-20.070075,11.370878c-0.81063,0.69563 -1.677165,1.33775 -2.515748,1.993248c-2.040551,1.618678 -1.523425,3.130336 0.65689,3.223978l5.506692,0c2.012598,-0.093643 1.984645,-2.488216 -0.097835,-2.488216l-3.018897,0c0.377362,-0.280928 0.782677,-0.561855 1.160039,-0.85616c1.719094,-1.33775 3.242519,-2.849408 3.242519,-4.802524a3.913385,3.745701 0 0 0 -4.262795,-3.678813c-4.332676,0 -5.464763,4.909544 -2.907086,4.909544c1.942716,0 0.96437,-2.327686 2.795275,-2.327686a1.187992,1.137088 0 0 1 1.229921,1.203975a4.192913,4.013251 0 0 1 -1.788976,2.822653zm10.552164,4.963054a1.481496,1.418015 0 0 0 2.250196,-0.187285a1.900787,1.81934 0 0 0 0.293504,-1.110333l0,-0.735763a2.473818,2.367818 0 0 0 1.062205,-0.133775a1.090157,1.043445 0 0 0 0.670866,-0.989935a1.132086,1.083578 0 0 0 -0.712795,-1.030068a2.697441,2.581858 0 0 0 -1.006299,-0.120398l0,-5.458021a1.663189,1.591923 0 0 0 -1.775,-1.739075a1.733071,1.65881 0 0 0 -1.551378,0.80265l-3.955314,5.230604c-1.006299,1.33775 -1.048228,3.451396 0.838583,3.451396l3.452165,0l0,0.682253a1.705118,1.632055 0 0 0 0.433268,1.33775zm-2.669488,-4.294179l2.501771,-3.732323c0,0.601988 -0.083858,1.190598 -0.125787,1.792585s0,1.257485 -0.069882,1.899605l-2.306102,0.040133z" fill="#ac74ee" class="TL-icon"/></svg>