<svg width="40" height="40" xmlns="http://www.w3.org/2000/svg"><g><rect fill="rgba(0,0,0,0)" id="canvas_background" height="42" width="42" y="-1" x="-1"/><g display="none" overflow="visible" y="0" x="0" height="100%" width="100%" id="canvasGrid"><rect fill="url(#gridpattern)" stroke-width="0" y="0" x="0" height="100%" width="100%"/></g></g><g><path stroke="null" id="svg_5" d="m11.575484,16.882638a3.170563,3.310935 0 1 0 -3.249827,-5.683771a24.09628,25.163103 0 0 0 -7.424402,7.753105a3.170563,3.310935 0 0 0 0,3.407504a24.09628,25.163103 0 0 0 7.424402,7.753105a3.170563,3.310935 0 1 0 3.263038,-5.683771a18.65348,19.479332 0 0 1 -4.068889,-3.766188a16.381243,17.106496 0 0 1 4.055679,-3.779984zm27.504635,2.08313a24.09628,25.163103 0 0 0 -7.424402,-7.753105a3.170563,3.310935 0 1 0 -3.263038,5.683771a18.65348,19.479332 0 0 1 4.068889,3.766188a16.381243,17.106496 0 0 1 -4.068889,3.807575a3.170563,3.310935 0 1 0 3.263038,5.683771a24.09628,25.163103 0 0 0 7.424402,-7.753105a3.170563,3.310935 0 0 0 0.013211,-3.44889l-0.013211,0.013796zm-18.376056,-14.154246l-6.60534,28.970678a2.642136,2.759112 0 0 0 5.138954,1.282987l6.60534,-28.970678a2.642136,2.759112 0 0 0 -5.125744,-1.296783l-0.013211,0.013796z" fill="#51e5cb" class="TL-icon"/> <g id="svg_6"/></g></svg>