<svg width="40" height="40" id="tl-1" xmlns="http://www.w3.org/2000/svg" viewBox="0 0 32 32"><path class="TL-icon" fill="#ffcf8f" d="M16.34,27.89a.83.83,0,0,1-.68,0L3.15,22.28,1.52,23a.91.91,0,0,0,0,1.65L15.66,31a.83.83,0,0,0,.68,0l14.14-6.35a.91.91,0,0,0,0-1.65l-1.62-.73Zm0-7.94a.83.83,0,0,1-.68,0L3.31,14.41l-1.79.8a.91.91,0,0,0,0,1.65l14.14,6.35a.83.83,0,0,0,.68,0l14.14-6.35a.91.91,0,0,0,0-1.65l-1.79-.8ZM30.48,9.07a.91.91,0,0,0,0-1.65L16.34,1.07a.83.83,0,0,0-.68,0L1.52,7.42a.91.91,0,0,0,0,1.65l14.14,6.35a.83.83,0,0,0,.68,0Z"/></svg>